# Blender 4.0.2
# www.blender.org
mtllib GroundPoundable.mtl
o planks
v 6.545876 0.024730 -3.000000
v 6.545876 -0.175270 -3.000000
v 6.545876 0.024730 3.000000
v 6.545876 -0.175270 3.000000
v 5.545876 0.024730 -3.000000
v 5.545876 -0.175270 -3.000000
v 5.545876 0.024730 3.000000
v 5.545876 -0.175270 3.000000
v 8.887663 0.248612 -2.924365
v 8.887663 0.048628 -2.926912
v 8.221048 0.172656 3.038005
v 8.221048 -0.027328 3.035458
v 7.893854 0.250027 -3.035458
v 7.893854 0.050043 -3.038006
v 7.227239 0.174071 2.926912
v 7.227239 -0.025913 2.924364
v 9.557453 0.024730 -3.000002
v 9.557453 -0.175270 -3.000002
v 9.557453 0.024730 2.999998
v 9.557453 -0.175270 2.999999
v 8.557453 0.024730 -3.000002
v 8.557453 -0.175270 -3.000002
v 8.557453 0.024730 2.999999
v 8.557453 -0.175270 2.999999
v 7.651477 0.024730 -3.015916
v 7.651477 -0.175270 -3.015916
v 7.865274 0.024730 2.980274
v 7.865274 -0.175270 2.980275
v 6.652112 0.024730 -2.980283
v 6.652112 -0.175270 -2.980283
v 6.865909 0.024730 3.015907
v 6.865909 -0.175270 3.015908
v 5.045876 0.024730 -3.000000
v 5.045876 -0.175270 -3.000000
v 5.045876 0.024730 3.000000
v 5.045876 -0.175270 3.000000
v 4.045876 0.024730 -3.000000
v 4.045876 -0.175270 -3.000000
v 4.045876 0.024730 3.000000
v 4.045876 -0.175270 3.000000
v 5.033990 0.227661 -2.997995
v 5.033990 0.027661 -2.997995
v 7.002414 0.227661 2.669924
v 7.002414 0.027661 2.669924
v 4.089337 0.227661 -2.669924
v 4.089337 0.027661 -2.669924
v 6.057761 0.227661 2.997995
v 6.057761 0.027661 2.997995
v 0.545876 0.024730 3.000000
v 0.545876 -0.175270 3.000000
v 0.545876 0.024730 -3.000000
v 0.545876 -0.175270 -3.000000
v -0.454124 0.024730 3.000000
v -0.454124 -0.175270 3.000000
v -0.454124 0.024730 -3.000000
v -0.454124 -0.175270 -3.000000
v 2.887663 0.248612 2.924364
v 2.887663 0.048628 2.926912
v 2.221048 0.172656 -3.038006
v 2.221048 -0.027328 -3.035458
v 1.893854 0.250027 3.035458
v 1.893854 0.050043 3.038005
v 1.227239 0.174071 -2.926912
v 1.227239 -0.025913 -2.924365
v 3.557453 0.024730 3.000002
v 3.557453 -0.175270 3.000002
v 3.557453 0.024730 -2.999999
v 3.557453 -0.175270 -2.999999
v 2.557453 0.024730 3.000002
v 2.557453 -0.175270 3.000001
v 2.557453 0.024730 -2.999999
v 2.557453 -0.175270 -2.999999
v 1.651477 0.024730 3.015915
v 1.651477 -0.175270 3.015915
v 1.865274 0.024730 -2.980275
v 1.865274 -0.175270 -2.980275
v 0.652112 0.024730 2.980283
v 0.652112 -0.175270 2.980282
v 0.865909 0.024730 -3.015908
v 0.865909 -0.175270 -3.015908
v -0.954124 0.024730 3.000000
v -0.954124 -0.175270 3.000000
v -0.954124 0.024730 -3.000000
v -0.954124 -0.175270 -3.000000
v -1.954124 0.024730 3.000000
v -1.954124 -0.175270 3.000000
v -1.954124 0.024730 -3.000000
v -1.954124 -0.175270 -3.000000
v -0.966010 0.227661 2.997995
v -0.966010 0.027661 2.997995
v 1.002414 0.227661 -2.669924
v 1.002414 0.027661 -2.669924
v -1.910663 0.227661 2.669924
v -1.910663 0.027661 2.669924
v 0.057761 0.227661 -2.997995
v 0.057761 0.027661 -2.997995
v -2.454124 0.024730 3.000000
v -2.454124 -0.175270 3.000000
v -2.454124 0.024730 -3.000000
v -2.454124 -0.175270 -3.000000
v -3.454124 0.024730 3.000000
v -3.454124 -0.175270 3.000000
v -3.454124 0.024730 -3.000000
v -3.454124 -0.175270 -3.000000
v -1.299654 0.488567 2.925006
v -1.294098 0.288772 2.932145
v -1.926966 0.258070 -3.037657
v -1.921409 0.058274 -3.030519
v -2.293785 0.464691 3.030518
v -2.288229 0.264895 3.037657
v -2.921097 0.234193 -2.932145
v -2.915541 0.034398 -2.925006
v -6.454124 0.024730 3.000000
v -6.454124 -0.175270 3.000000
v -6.454124 0.024730 -3.000000
v -6.454124 -0.175270 -3.000000
v -5.454124 0.024730 3.000000
v -5.454124 -0.175270 3.000000
v -5.454124 0.024730 -3.000000
v -5.454124 -0.175270 -3.000000
v -8.795912 0.248612 2.924364
v -8.795912 0.048628 2.926912
v -8.129297 0.172656 -3.038006
v -8.129297 -0.027328 -3.035458
v -7.802103 0.250027 3.035458
v -7.802103 0.050043 3.038005
v -7.135489 0.174071 -2.926912
v -7.135489 -0.025913 -2.924365
v -9.465702 0.024730 3.000002
v -9.465702 -0.175270 3.000002
v -9.465702 0.024730 -2.999999
v -9.465702 -0.175270 -2.999999
v -8.465702 0.024730 3.000002
v -8.465702 -0.175270 3.000001
v -8.465702 0.024730 -2.999999
v -8.465702 -0.175270 -2.999999
v -7.559726 0.024730 3.015915
v -7.559726 -0.175270 3.015915
v -7.773523 0.024730 -2.980275
v -7.773523 -0.175270 -2.980275
v -6.560361 0.024730 2.980283
v -6.560361 -0.175270 2.980282
v -6.774158 0.024730 -3.015908
v -6.774158 -0.175270 -3.015908
v -4.954124 0.024730 3.000000
v -4.954124 -0.175270 3.000000
v -4.954124 0.024730 -3.000000
v -4.954124 -0.175270 -3.000000
v -3.954124 0.024730 3.000000
v -3.954124 -0.175270 3.000000
v -3.954124 0.024730 -3.000000
v -3.954124 -0.175270 -3.000000
v -4.942239 0.227661 2.997995
v -4.942239 0.027661 2.997995
v -6.910664 0.227661 -2.669924
v -6.910664 0.027661 -2.669924
v -3.997585 0.227661 2.669924
v -3.997585 0.027661 2.669924
v -5.966010 0.227661 -2.997995
v -5.966010 0.027661 -2.997995
vn -0.0000 1.0000 -0.0000
vn -0.0000 -0.0000 1.0000
vn -1.0000 -0.0000 -0.0000
vn -0.0000 -1.0000 -0.0000
vn 1.0000 -0.0000 -0.0000
vn -0.0000 -0.0000 -1.0000
vn -0.0000 0.9999 0.0127
vn -0.1111 -0.0127 0.9937
vn -0.9938 0.0014 -0.1111
vn -0.0000 -0.9999 -0.0127
vn 0.9938 -0.0014 0.1111
vn 0.1111 0.0127 -0.9937
vn 0.0356 -0.0000 0.9994
vn -0.9994 -0.0000 0.0356
vn 0.9994 -0.0000 -0.0356
vn -0.0356 -0.0000 -0.9994
vn 0.3281 -0.0000 0.9447
vn -0.9447 -0.0000 0.3281
vn 0.9447 -0.0000 -0.3281
vn -0.3281 -0.0000 -0.9447
vn -0.0000 -0.9999 0.0127
vn 0.1111 0.0127 0.9937
vn 0.9938 -0.0014 -0.1111
vn -0.0000 0.9999 -0.0127
vn -0.9938 0.0014 0.1111
vn -0.1111 -0.0127 -0.9937
vn -0.0356 -0.0000 0.9994
vn 0.9994 -0.0000 0.0356
vn -0.9994 -0.0000 -0.0356
vn 0.0356 -0.0000 -0.9994
vn -0.3281 -0.0000 0.9447
vn 0.9447 -0.0000 0.3281
vn -0.9447 -0.0000 -0.3281
vn 0.3281 -0.0000 -0.9447
vn 0.0278 -0.9990 0.0357
vn 0.1046 0.0384 0.9938
vn 0.9941 0.0239 -0.1055
vn -0.0278 0.9990 -0.0357
vn -0.9941 -0.0239 0.1055
vn -0.1046 -0.0384 -0.9938
vn 0.1111 -0.0127 -0.9937
vn 0.9938 0.0014 0.1111
vn -0.9938 -0.0014 -0.1111
vn -0.1111 0.0127 0.9937
vt 0.625000 0.500000
vt 0.875000 0.500000
vt 0.875000 0.750000
vt 0.625000 0.750000
vt 0.375000 0.750000
vt 0.625000 1.000000
vt 0.375000 1.000000
vt 0.375000 0.000000
vt 0.625000 0.000000
vt 0.625000 0.250000
vt 0.375000 0.250000
vt 0.125000 0.500000
vt 0.375000 0.500000
vt 0.125000 0.750000
s 0
usemtl Material.035
f 1/1/1 5/2/1 7/3/1 3/4/1
f 4/5/2 3/4/2 7/6/2 8/7/2
f 8/8/3 7/9/3 5/10/3 6/11/3
f 6/12/4 2/13/4 4/5/4 8/14/4
f 2/13/5 1/1/5 3/4/5 4/5/5
f 6/11/6 5/10/6 1/1/6 2/13/6
usemtl Material.036
f 9/1/7 13/2/7 15/3/7 11/4/7
f 12/5/8 11/4/8 15/6/8 16/7/8
f 16/8/9 15/9/9 13/10/9 14/11/9
f 14/12/10 10/13/10 12/5/10 16/14/10
f 10/13/11 9/1/11 11/4/11 12/5/11
f 14/11/12 13/10/12 9/1/12 10/13/12
usemtl Material.037
f 17/1/1 21/2/1 23/3/1 19/4/1
f 20/5/2 19/4/2 23/6/2 24/7/2
f 24/8/3 23/9/3 21/10/3 22/11/3
f 22/12/4 18/13/4 20/5/4 24/14/4
f 18/13/5 17/1/5 19/4/5 20/5/5
f 22/11/6 21/10/6 17/1/6 18/13/6
usemtl Material.038
f 25/1/1 29/2/1 31/3/1 27/4/1
f 28/5/13 27/4/13 31/6/13 32/7/13
f 32/8/14 31/9/14 29/10/14 30/11/14
f 30/12/4 26/13/4 28/5/4 32/14/4
f 26/13/15 25/1/15 27/4/15 28/5/15
f 30/11/16 29/10/16 25/1/16 26/13/16
usemtl Material.039
f 33/1/1 37/2/1 39/3/1 35/4/1
f 36/5/2 35/4/2 39/6/2 40/7/2
f 40/8/3 39/9/3 37/10/3 38/11/3
f 38/12/4 34/13/4 36/5/4 40/14/4
f 34/13/5 33/1/5 35/4/5 36/5/5
f 38/11/6 37/10/6 33/1/6 34/13/6
usemtl Material.040
f 41/1/1 45/2/1 47/3/1 43/4/1
f 44/5/17 43/4/17 47/6/17 48/7/17
f 48/8/18 47/9/18 45/10/18 46/11/18
f 46/12/4 42/13/4 44/5/4 48/14/4
f 42/13/19 41/1/19 43/4/19 44/5/19
f 46/11/20 45/10/20 41/1/20 42/13/20
usemtl Material.011
f 49/1/4 53/2/4 55/3/4 51/4/4
f 52/5/2 51/4/2 55/6/2 56/7/2
f 56/8/5 55/9/5 53/10/5 54/11/5
f 54/12/1 50/13/1 52/5/1 56/14/1
f 50/13/3 49/1/3 51/4/3 52/5/3
f 54/11/6 53/10/6 49/1/6 50/13/6
usemtl Material.013
f 57/1/21 61/2/21 63/3/21 59/4/21
f 60/5/22 59/4/22 63/6/22 64/7/22
f 64/8/23 63/9/23 61/10/23 62/11/23
f 62/12/24 58/13/24 60/5/24 64/14/24
f 58/13/25 57/1/25 59/4/25 60/5/25
f 62/11/26 61/10/26 57/1/26 58/13/26
usemtl Material.014
f 65/1/4 69/2/4 71/3/4 67/4/4
f 68/5/2 67/4/2 71/6/2 72/7/2
f 72/8/5 71/9/5 69/10/5 70/11/5
f 70/12/1 66/13/1 68/5/1 72/14/1
f 66/13/3 65/1/3 67/4/3 68/5/3
f 70/11/6 69/10/6 65/1/6 66/13/6
usemtl Material.012
f 73/1/4 77/2/4 79/3/4 75/4/4
f 76/5/27 75/4/27 79/6/27 80/7/27
f 80/8/28 79/9/28 77/10/28 78/11/28
f 78/12/1 74/13/1 76/5/1 80/14/1
f 74/13/29 73/1/29 75/4/29 76/5/29
f 78/11/30 77/10/30 73/1/30 74/13/30
usemtl Material.015
f 81/1/4 85/2/4 87/3/4 83/4/4
f 84/5/2 83/4/2 87/6/2 88/7/2
f 88/8/5 87/9/5 85/10/5 86/11/5
f 86/12/1 82/13/1 84/5/1 88/14/1
f 82/13/3 81/1/3 83/4/3 84/5/3
f 86/11/6 85/10/6 81/1/6 82/13/6
usemtl Material.016
f 89/1/4 93/2/4 95/3/4 91/4/4
f 92/5/31 91/4/31 95/6/31 96/7/31
f 96/8/32 95/9/32 93/10/32 94/11/32
f 94/12/1 90/13/1 92/5/1 96/14/1
f 90/13/33 89/1/33 91/4/33 92/5/33
f 94/11/34 93/10/34 89/1/34 90/13/34
usemtl Material.017
f 97/1/4 101/2/4 103/3/4 99/4/4
f 100/5/2 99/4/2 103/6/2 104/7/2
f 104/8/5 103/9/5 101/10/5 102/11/5
f 102/12/1 98/13/1 100/5/1 104/14/1
f 98/13/3 97/1/3 99/4/3 100/5/3
f 102/11/6 101/10/6 97/1/6 98/13/6
usemtl Material.018
f 105/1/35 109/2/35 111/3/35 107/4/35
f 108/5/36 107/4/36 111/6/36 112/7/36
f 112/8/37 111/9/37 109/10/37 110/11/37
f 110/12/38 106/13/38 108/5/38 112/14/38
f 106/13/39 105/1/39 107/4/39 108/5/39
f 110/11/40 109/10/40 105/1/40 106/13/40
usemtl Material.019
f 113/1/1 117/2/1 119/3/1 115/4/1
f 116/5/6 115/4/6 119/6/6 120/7/6
f 120/8/5 119/9/5 117/10/5 118/11/5
f 118/12/4 114/13/4 116/5/4 120/14/4
f 114/13/3 113/1/3 115/4/3 116/5/3
f 118/11/2 117/10/2 113/1/2 114/13/2
usemtl Material.020
f 121/1/24 125/2/24 127/3/24 123/4/24
f 124/5/41 123/4/41 127/6/41 128/7/41
f 128/8/42 127/9/42 125/10/42 126/11/42
f 126/12/21 122/13/21 124/5/21 128/14/21
f 122/13/43 121/1/43 123/4/43 124/5/43
f 126/11/44 125/10/44 121/1/44 122/13/44
usemtl Material.021
f 129/1/1 133/2/1 135/3/1 131/4/1
f 132/5/6 131/4/6 135/6/6 136/7/6
f 136/8/5 135/9/5 133/10/5 134/11/5
f 134/12/4 130/13/4 132/5/4 136/14/4
f 130/13/3 129/1/3 131/4/3 132/5/3
f 134/11/2 133/10/2 129/1/2 130/13/2
usemtl Material.022
f 137/1/1 141/2/1 143/3/1 139/4/1
f 140/5/16 139/4/16 143/6/16 144/7/16
f 144/8/15 143/9/15 141/10/15 142/11/15
f 142/12/4 138/13/4 140/5/4 144/14/4
f 138/13/14 137/1/14 139/4/14 140/5/14
f 142/11/13 141/10/13 137/1/13 138/13/13
usemtl Material.023
f 145/1/1 149/2/1 151/3/1 147/4/1
f 148/5/6 147/4/6 151/6/6 152/7/6
f 152/8/5 151/9/5 149/10/5 150/11/5
f 150/12/4 146/13/4 148/5/4 152/14/4
f 146/13/3 145/1/3 147/4/3 148/5/3
f 150/11/2 149/10/2 145/1/2 146/13/2
usemtl Material.024
f 153/1/1 157/2/1 159/3/1 155/4/1
f 156/5/20 155/4/20 159/6/20 160/7/20
f 160/8/19 159/9/19 157/10/19 158/11/19
f 158/12/4 154/13/4 156/5/4 160/14/4
f 154/13/18 153/1/18 155/4/18 156/5/18
f 158/11/17 157/10/17 153/1/17 154/13/17
