<?xml version="1.0" encoding="UTF-8" standalone="no"?>
<!DOCTYPE svg PUBLIC "-//W3C//DTD SVG 1.1//EN" "http://www.w3.org/Graphics/SVG/1.1/DTD/svg11.dtd">
<svg xmlns="http://www.w3.org/2000/svg" version="1.1" viewBox="0.00 0.00 512.00 512.00">
<path fill="#ffffff" d="
  M 208.46 138.21
  Q 207.30 135.98 207.24 138.49
  Q 206.92 150.42 205.33 161.47
  Q 204.16 169.58 203.48 177.73
  C 202.29 191.80 200.44 204.83 199.25 218.41
  C 198.64 225.30 196.67 234.44 196.84 242.82
  Q 196.85 243.31 196.38 243.45
  L 188.01 245.99
  Q 187.34 246.19 187.36 245.49
  Q 187.41 243.90 187.50 242.32
  Q 187.61 240.66 186.97 239.29
  C 184.62 234.19 182.17 227.76 176.23 227.79
  A 0.44 0.43 16.8 0 1 175.86 227.11
  L 177.37 224.93
  Q 177.66 224.52 177.68 224.02
  C 178.43 209.92 180.67 196.10 182.22 182.09
  Q 183.50 170.41 184.54 162.44
  Q 187.74 137.89 190.27 113.25
  Q 190.44 111.60 191.70 105.70
  Q 192.84 100.40 189.71 97.01
  Q 186.75 93.81 183.76 90.70
  Q 183.40 90.32 183.32 89.81
  C 182.94 87.36 182.30 84.75 182.29 82.33
  Q 182.27 75.13 183.48 68.99
  Q 183.86 67.08 186.00 67.08
  Q 227.07 67.09 242.50 66.92
  C 244.40 66.89 245.46 66.80 246.56 68.56
  Q 249.67 73.57 249.96 76.77
  C 250.32 80.67 251.53 84.59 251.92 88.12
  Q 254.83 114.61 257.95 141.08
  Q 261.17 168.46 263.93 195.88
  C 264.72 203.71 266.81 216.75 267.22 227.36
  C 267.31 229.78 268.22 231.85 268.85 234.22
  A 0.68 0.68 0.0 0 1 268.19 235.08
  L 253.60 234.99
  A 0.64 0.63 2.1 0 1 252.97 234.32
  Q 253.23 229.92 249.48 228.19
  C 245.25 226.24 239.65 233.11 237.45 236.17
  Q 237.21 236.51 236.79 236.50
  L 229.35 236.25
  A 0.53 0.49 24.2 0 0 228.99 236.37
  L 227.02 238.05
  A 0.54 0.53 69.7 0 1 226.14 237.64
  Q 226.13 234.39 224.48 231.55
  A 1.06 1.04 75.2 0 0 223.59 231.02
  L 219.27 230.90
  Q 218.04 230.87 217.89 229.64
  Q 214.58 202.47 212.47 177.00
  C 212.33 175.38 211.54 173.70 211.39 171.96
  Q 210.09 155.85 208.64 139.76
  Q 208.51 138.31 208.46 138.21
  Z"
/>
<path fill="#ffffff" d="
  M 67.41 201.46
  Q 67.58 201.31 67.46 200.30
  Q 67.39 199.70 67.55 199.17
  Q 75.97 171.78 85.47 144.74
  Q 88.64 135.71 91.43 126.54
  Q 91.58 126.03 91.99 125.68
  Q 92.92 124.85 92.34 123.39
  A 0.74 0.74 0.0 0 1 92.57 122.54
  L 92.95 122.25
  Q 93.32 121.97 93.45 121.52
  Q 96.01 112.84 98.84 104.24
  C 99.53 102.14 99.35 100.23 99.90 98.02
  Q 100.03 97.52 99.62 97.20
  Q 95.23 93.80 92.42 89.16
  C 89.76 84.76 90.92 77.69 91.18 71.90
  Q 91.25 70.21 91.97 69.40
  Q 92.25 69.08 92.19 68.65
  L 92.01 67.53
  Q 91.93 66.99 92.48 66.99
  L 134.02 67.01
  Q 136.90 67.01 136.96 69.90
  Q 137.13 78.92 137.03 87.50
  Q 137.03 87.59 137.17 88.65
  Q 137.27 89.37 136.76 89.83
  Q 134.82 91.56 129.06 94.79
  Q 126.87 96.02 125.23 98.62
  Q 124.34 100.04 123.05 103.46
  Q 113.92 127.64 104.15 150.96
  A 4.78 4.77 -39.5 0 0 103.88 153.74
  Q 105.45 161.45 107.34 169.54
  Q 108.67 175.19 109.38 180.96
  C 109.56 182.43 110.44 183.49 110.68 185.01
  Q 111.66 191.23 112.99 197.39
  Q 115.56 209.29 115.65 209.70
  C 117.91 220.92 120.31 232.12 122.45 243.38
  Q 123.20 247.29 124.42 252.53
  Q 125.72 258.11 127.21 267.93
  Q 127.39 269.10 128.51 272.03
  Q 130.44 277.10 124.73 279.97
  A 1.64 1.62 -52.9 0 1 123.77 280.11
  Q 117.73 279.10 115.52 280.00
  C 111.79 281.52 113.04 286.55 115.70 288.32
  A 0.69 0.69 0.0 0 1 115.80 289.38
  L 111.63 293.48
  Q 111.28 293.83 110.92 293.50
  L 109.99 292.68
  A 1.58 1.49 -19.2 0 0 109.16 292.31
  Q 104.35 291.70 99.75 290.29
  C 97.31 289.54 94.59 289.65 92.00 288.85
  C 88.64 287.81 84.77 287.99 81.10 287.72
  A 1.13 1.12 -85.1 0 1 80.06 286.48
  Q 80.51 282.37 78.47 278.87
  A 1.12 1.11 -50.0 0 1 78.39 277.93
  Q 79.31 275.52 77.75 273.70
  Q 77.38 273.28 77.30 272.72
  Q 76.19 264.49 75.55 262.01
  Q 73.31 253.28 72.77 247.87
  Q 72.72 247.37 72.48 246.92
  Q 71.67 245.35 71.87 243.03
  Q 71.96 241.97 71.01 241.50
  Q 70.56 241.28 70.43 241.76
  Q 69.75 244.28 69.12 246.75
  Q 68.98 247.30 67.41 251.55
  Q 66.19 254.82 66.12 259.50
  Q 65.89 273.46 66.09 287.42
  C 66.12 290.07 65.03 290.79 62.50 290.70
  Q 56.94 290.51 51.40 292.25
  Q 49.91 292.72 45.57 293.95
  Q 42.61 294.78 39.86 296.22
  Q 39.42 296.45 38.93 296.48
  Q 38.14 296.53 37.06 297.12
  C 28.38 301.82 17.54 309.15 13.51 317.75
  Q 12.94 318.95 12.94 317.63
  Q 13.05 212.36 12.98 107.25
  C 12.98 102.45 12.76 100.47 9.29 96.87
  Q 7.38 94.91 5.57 92.86
  C 2.90 89.83 3.06 87.62 2.94 83.76
  Q 2.62 74.00 3.69 70.73
  Q 4.33 68.77 4.19 67.51
  Q 4.13 67.01 4.63 67.01
  Q 38.95 66.98 73.25 67.01
  Q 74.80 67.01 75.95 67.32
  A 0.79 0.78 4.8 0 1 76.54 68.01
  Q 77.55 77.50 76.99 86.97
  C 76.59 93.66 73.32 92.25 70.13 96.15
  C 65.56 101.74 66.01 106.34 66.02 114.81
  Q 66.08 157.45 65.98 200.80
  Q 65.98 202.67 67.41 201.46
  Z"
/>
<path fill="#ffffff" d="
  M 356.79 111.46
  L 357.49 112.23
  Q 357.82 112.58 357.89 113.06
  Q 358.22 115.30 359.53 117.20
  Q 359.82 117.62 359.41 117.94
  Q 349.52 125.79 339.19 137.67
  Q 321.56 157.96 314.55 182.59
  C 312.75 188.90 312.47 196.00 311.69 202.80
  Q 311.61 203.46 311.01 203.19
  L 310.30 202.86
  Q 309.85 202.66 309.91 202.17
  Q 310.56 196.74 310.56 191.25
  Q 310.55 151.13 310.56 111.00
  Q 310.56 107.20 308.29 99.07
  C 306.95 94.25 302.10 94.18 299.74 90.63
  C 296.41 85.60 297.18 72.63 300.39 67.47
  A 1.03 1.02 15.9 0 1 301.26 66.99
  L 342.47 66.98
  Q 342.96 66.98 343.05 67.47
  C 344.18 73.68 346.50 78.87 348.23 85.20
  C 348.61 86.59 349.66 87.63 349.95 89.38
  Q 350.15 90.63 350.33 91.16
  Q 352.57 97.67 354.75 104.18
  C 355.20 105.54 354.75 107.31 356.42 108.37
  Q 356.93 108.70 356.80 109.30
  L 356.53 110.52
  Q 356.42 111.06 356.79 111.46
  Z"
/>
<path fill="#ffffff" d="
  M 377.26 68.50
  L 377.12 67.74
  Q 376.98 67.03 377.71 67.02
  Q 397.43 66.91 417.13 67.03
  C 419.24 67.05 421.70 66.66 422.07 69.35
  Q 422.48 72.31 422.99 74.33
  C 424.11 78.77 423.83 82.81 424.04 87.19
  A 0.73 0.73 0.0 0 1 423.46 87.94
  C 421.49 88.34 419.71 88.04 417.85 88.60
  Q 403.98 92.83 390.59 98.36
  Q 390.06 98.57 389.79 99.07
  L 389.62 99.38
  Q 389.27 100.02 388.85 99.41
  Q 386.06 95.37 381.69 93.12
  Q 380.21 92.36 378.72 89.72
  Q 377.78 88.06 377.35 85.54
  C 376.37 79.76 374.99 75.17 377.19 69.35
  Q 377.34 68.93 377.26 68.50
  Z"
/>
<path fill="#ffffff" d="
  M 492.49 131.90
  L 490.66 118.39
  Q 490.59 117.87 490.17 117.55
  Q 489.22 116.82 489.38 115.79
  Q 489.46 115.30 489.29 114.83
  Q 484.89 103.39 475.53 96.23
  C 470.07 92.06 463.63 88.22 457.01 86.27
  C 449.82 84.14 438.87 82.22 431.85 85.53
  A 0.78 0.78 0.0 0 1 430.74 84.79
  Q 431.03 78.65 430.98 72.17
  C 430.97 70.62 431.64 69.20 431.76 67.63
  A 0.73 0.72 -87.4 0 1 432.48 66.97
  L 506.94 67.01
  A 1.23 1.23 0.0 0 1 508.17 68.21
  Q 508.23 70.04 510.07 69.84
  A 0.64 0.63 83.7 0 1 510.77 70.41
  Q 511.70 79.47 510.89 88.54
  Q 510.84 89.07 510.45 89.43
  L 505.87 93.64
  A 0.61 0.58 -70.3 0 1 505.57 93.79
  C 501.53 94.48 499.47 96.34 497.95 100.21
  C 497.21 102.11 496.20 103.64 496.20 105.71
  Q 496.14 152.40 496.23 199.09
  Q 496.23 199.17 496.52 200.86
  Q 496.78 202.36 495.05 203.33
  C 488.81 206.85 483.67 209.48 476.68 211.71
  C 467.99 214.47 459.73 217.90 450.54 218.41
  Q 449.96 218.44 449.46 218.74
  Q 447.04 220.21 443.98 219.67
  A 1.19 1.19 0.0 0 1 442.99 218.50
  L 442.95 133.98
  A 0.78 0.77 -4.4 0 1 443.61 133.22
  C 448.03 132.57 452.31 131.83 456.86 131.99
  Q 466.49 132.33 476.12 132.76
  C 481.29 133.00 486.49 132.68 491.69 132.80
  A 0.79 0.79 0.0 0 0 492.49 131.90
  Z"
/>
<path fill="#ffffff" d="
  M 317.44 188.36
  Q 319.70 176.88 323.90 168.91
  Q 336.20 145.59 352.48 129.72
  C 357.90 124.44 367.66 116.51 374.79 111.75
  Q 401.47 93.95 433.56 89.15
  C 435.35 88.88 436.49 89.51 438.29 89.63
  A 1.57 1.51 -57.4 0 0 439.21 89.41
  C 442.83 87.22 446.51 89.61 449.50 89.74
  Q 455.99 90.03 459.84 91.69
  C 470.85 96.43 480.89 102.21 485.38 114.32
  A 1.69 1.65 10.0 0 0 485.92 115.07
  C 487.12 116.02 486.62 117.16 486.89 118.29
  Q 488.10 123.39 489.06 128.55
  Q 489.15 129.01 488.68 129.04
  C 480.20 129.49 470.49 128.72 463.51 128.67
  C 459.28 128.64 444.35 128.10 441.56 131.17
  Q 441.36 131.38 441.10 131.48
  Q 434.43 133.92 429.40 138.40
  Q 409.88 155.78 394.96 177.57
  Q 388.37 187.19 384.94 194.85
  Q 380.03 205.79 377.94 217.76
  Q 376.07 228.49 375.78 237.75
  C 375.49 247.03 367.72 254.61 360.10 258.70
  Q 357.97 259.85 355.13 259.96
  C 349.60 260.19 343.71 261.15 338.93 257.48
  Q 336.89 255.91 332.61 250.96
  Q 323.20 240.10 319.55 225.98
  C 319.08 224.16 319.07 221.57 317.79 219.44
  Q 317.53 219.02 317.51 218.52
  C 317.38 214.35 316.05 210.33 315.90 206.58
  Q 315.60 199.15 316.20 191.75
  C 316.27 190.94 317.23 189.47 317.44 188.36
  Z"
/>
<path fill="#ffffff" d="
  M 391.19 211.53
  C 390.79 210.64 390.37 210.05 390.27 209.05
  Q 389.39 200.58 390.07 192.06
  Q 390.25 189.78 391.51 187.72
  C 393.80 183.99 395.91 180.07 398.60 176.76
  Q 404.97 168.89 412.13 161.94
  A 0.32 0.32 0.0 0 1 412.67 162.17
  Q 412.63 186.87 412.64 211.00
  Q 412.64 213.59 412.84 215.84
  A 0.92 0.91 -1.7 0 1 411.90 216.83
  C 399.28 216.41 388.30 222.23 382.99 233.67
  C 381.98 235.84 380.23 241.12 377.94 241.92
  Q 377.31 242.14 377.67 241.58
  C 378.22 240.73 378.60 240.25 378.75 239.22
  Q 379.98 230.49 380.37 221.70
  C 380.43 220.44 381.27 219.80 381.45 218.64
  Q 382.32 213.15 383.44 207.71
  Q 383.54 207.23 383.86 206.85
  L 384.53 206.07
  A 1.00 0.98 58.7 0 0 384.74 205.17
  Q 384.10 202.76 385.49 200.81
  A 0.73 0.73 0.0 0 1 386.82 201.20
  Q 387.11 206.69 389.18 211.55
  Q 389.75 212.88 390.95 212.24
  Q 391.40 212.00 391.19 211.53
  Z"
/>
<path fill="#ffffff" d="
  M 451.40 223.35
  C 452.58 222.35 453.76 222.88 455.05 222.57
  Q 462.13 220.83 468.98 218.35
  Q 472.35 217.13 478.43 215.46
  Q 490.26 212.21 499.90 204.36
  Q 501.43 203.12 501.88 205.04
  C 502.25 206.61 502.11 208.78 501.35 210.39
  C 491.24 231.69 474.23 248.05 453.33 258.82
  Q 431.37 270.14 413.01 275.08
  Q 407.40 276.59 403.64 277.71
  Q 397.60 279.50 394.17 279.85
  Q 388.98 280.37 383.78 280.04
  C 378.80 279.73 373.12 278.08 367.91 276.93
  C 365.14 276.32 363.31 274.80 360.83 273.57
  C 357.53 271.93 355.42 269.43 352.20 267.56
  A 0.66 0.65 44.6 0 1 352.19 266.43
  Q 354.13 265.26 356.47 264.63
  Q 359.94 263.70 360.83 263.32
  C 373.69 257.80 378.48 247.31 384.71 235.70
  Q 387.21 231.04 389.47 228.77
  Q 397.03 221.16 406.97 219.94
  Q 416.54 218.77 429.35 221.10
  C 431.93 221.56 434.88 222.60 437.72 223.20
  Q 439.61 223.59 442.83 223.47
  Q 445.46 223.37 448.10 223.69
  Q 448.68 223.76 448.99 223.27
  L 449.29 222.82
  A 0.44 0.44 0.0 0 1 449.96 222.73
  L 450.63 223.34
  A 0.59 0.59 0.0 0 0 451.40 223.35
  Z"
/>
<path fill="#ffffff" d="
  M 278.07 237.93
  Q 278.02 237.45 278.12 237.26
  C 283.31 227.43 291.29 219.01 299.43 211.59
  C 302.41 208.87 305.23 207.23 308.80 205.78
  Q 309.54 205.47 309.83 205.56
  A 1.30 1.30 0.0 0 1 310.78 206.90
  C 310.39 212.58 312.36 217.34 313.00 223.55
  Q 313.38 227.15 314.60 230.14
  C 320.63 244.83 327.13 255.55 338.54 264.82
  A 0.79 0.78 49.5 0 1 338.44 266.11
  C 336.19 267.40 334.57 268.89 332.07 270.08
  C 328.17 271.94 325.19 275.74 322.48 277.57
  C 319.02 279.89 315.13 280.99 311.71 282.64
  Q 308.98 283.95 307.58 284.07
  C 302.71 284.50 295.52 279.16 291.97 275.94
  C 283.54 268.30 277.75 259.32 276.14 247.88
  Q 275.72 244.88 278.01 238.56
  Q 278.11 238.27 278.07 237.93
  Z"
/>
<path fill="#ffffff" d="
  M 507.73 368.76
  L 507.86 368.99
  A 1.10 1.09 75.4 0 1 506.91 370.62
  Q 469.93 370.64 434.13 370.62
  Q 433.87 370.62 432.41 370.91
  Q 431.37 371.12 430.86 370.31
  Q 430.60 369.88 430.68 369.38
  L 431.01 367.52
  Q 431.10 367.04 430.86 366.63
  C 429.81 364.81 430.91 363.45 430.94 361.84
  Q 431.07 354.96 430.82 348.08
  Q 430.81 347.59 431.14 347.22
  C 434.50 343.43 438.95 343.58 441.72 338.97
  Q 442.97 336.88 442.98 333.24
  Q 443.07 301.92 442.81 270.63
  Q 442.79 268.28 444.81 267.29
  Q 461.13 259.26 470.64 252.39
  Q 478.49 246.71 488.54 236.42
  C 491.65 233.24 493.69 230.09 495.54 226.27
  A 0.53 0.53 0.0 0 1 496.51 226.32
  C 497.10 227.93 496.22 229.49 496.22 230.89
  Q 496.15 280.08 496.20 329.26
  C 496.20 335.67 497.17 340.13 502.37 343.53
  Q 505.98 345.89 506.60 346.63
  C 510.31 351.09 509.29 361.00 508.84 366.94
  A 1.11 1.11 0.0 0 1 508.41 367.73
  L 507.86 368.14
  Q 507.53 368.40 507.73 368.76
  Z"
/>
<path fill="#ffffff" d="
  M 115.50 352.96
  L 115.23 353.53
  A 0.32 0.31 -62.0 0 1 114.79 353.67
  Q 102.52 346.30 95.73 338.52
  C 92.96 335.35 100.05 319.51 101.78 315.82
  C 104.16 310.74 108.19 305.84 111.25 300.65
  C 113.63 296.61 116.26 294.13 119.54 291.11
  A 1.68 1.67 -41.9 0 0 119.67 288.77
  L 116.07 284.67
  A 0.67 0.67 0.0 0 1 116.22 283.65
  L 119.48 281.65
  Q 120.01 281.33 120.55 281.60
  Q 123.50 283.08 126.91 283.16
  A 1.08 1.08 0.0 0 0 127.66 282.88
  Q 133.65 277.40 141.06 274.10
  C 142.63 273.40 143.66 272.59 144.45 271.20
  A 0.63 0.63 0.0 0 1 145.54 271.19
  C 147.35 274.24 155.61 283.28 159.58 279.21
  Q 160.75 278.02 161.07 275.50
  Q 161.92 268.83 159.39 262.97
  A 1.22 1.22 0.0 0 1 159.96 261.39
  L 172.66 254.96
  A 0.69 0.69 0.0 0 1 173.66 255.62
  L 173.47 258.53
  Q 173.43 259.15 173.84 259.63
  Q 176.15 262.30 178.70 264.75
  C 180.00 266.00 183.19 267.13 184.90 266.38
  C 191.18 263.61 188.95 255.39 188.91 249.91
  A 0.69 0.68 -5.1 0 1 189.48 249.24
  Q 192.71 248.65 195.73 247.61
  Q 198.67 246.59 201.99 246.03
  Q 205.92 245.37 209.67 243.97
  C 213.73 242.46 216.25 239.96 217.97 236.16
  Q 218.75 234.42 219.44 234.17
  A 2.57 2.34 83.2 0 1 222.56 236.87
  L 222.23 241.44
  Q 222.20 241.89 222.65 241.94
  C 226.14 242.33 229.16 240.96 232.12 240.92
  Q 234.16 240.89 236.22 240.99
  Q 236.71 241.01 237.06 240.65
  L 246.15 231.44
  A 1.25 1.25 0.0 0 1 247.30 231.09
  C 249.60 231.57 248.98 237.09 249.12 238.85
  Q 249.16 239.38 249.69 239.32
  C 257.24 238.58 263.29 240.43 269.98 241.02
  Q 270.52 241.06 270.98 240.79
  Q 271.94 240.22 272.69 241.15
  Q 273.00 241.53 272.95 242.03
  Q 272.11 250.38 274.42 258.44
  A 1.51 1.47 -77.8 0 0 274.87 259.16
  Q 275.53 259.77 275.46 260.64
  Q 275.42 261.09 275.59 261.50
  Q 280.01 271.81 286.26 277.23
  Q 292.14 282.34 303.27 287.30
  Q 303.69 287.49 303.68 287.94
  L 303.47 297.90
  Q 303.46 298.40 303.02 298.63
  C 297.15 301.73 287.50 302.97 287.91 311.60
  C 288.07 314.96 292.12 319.82 289.05 323.20
  C 286.75 325.73 284.87 328.36 282.35 330.34
  Q 281.36 331.12 280.52 330.17
  Q 273.89 322.58 266.47 316.29
  Q 264.47 314.59 261.00 314.74
  A 0.89 0.89 0.0 0 1 260.24 314.37
  L 259.76 313.69
  Q 259.42 313.22 259.04 313.66
  L 258.62 314.13
  Q 258.23 314.56 257.78 314.18
  L 256.66 313.20
  Q 256.15 312.75 255.58 313.13
  L 246.72 319.13
  Q 246.25 319.45 246.11 320.00
  Q 245.11 323.85 247.35 327.14
  Q 253.22 335.78 259.49 345.14
  Q 260.64 346.86 258.77 347.74
  Q 252.52 350.72 244.94 353.34
  Q 223.81 360.62 213.72 365.51
  Q 205.75 369.37 198.30 369.48
  Q 197.79 369.49 197.36 369.77
  Q 196.58 370.29 196.25 370.30
  Q 180.78 370.98 156.92 370.54
  Q 156.42 370.53 155.98 370.30
  Q 153.39 368.93 148.74 369.13
  C 144.38 369.31 144.94 361.73 143.59 359.02
  C 140.22 352.29 132.52 352.37 126.19 354.47
  C 121.78 355.94 119.02 356.29 115.89 352.90
  A 0.24 0.24 0.0 0 0 115.50 352.96
  Z
  M 196.71 311.20
  Q 197.25 314.00 197.23 317.50
  Q 197.23 319.87 199.56 319.80
  Q 200.19 319.78 200.54 319.24
  L 203.03 315.31
  A 0.58 0.57 -85.9 0 1 203.27 315.10
  Q 205.89 313.83 208.62 312.84
  Q 209.27 312.60 209.70 313.14
  L 211.68 315.61
  A 1.15 1.14 59.8 0 1 211.21 317.39
  Q 205.19 319.77 199.43 321.61
  Q 197.88 322.11 198.47 323.56
  A 1.91 1.90 68.6 0 0 200.91 324.63
  L 212.92 320.09
  Q 213.62 319.83 214.01 320.47
  L 215.67 323.25
  A 1.10 1.10 0.0 0 0 216.61 323.78
  Q 218.47 323.77 219.82 322.47
  Q 220.22 322.09 219.91 321.63
  L 218.29 319.22
  A 0.89 0.88 64.2 0 1 218.75 317.89
  Q 225.45 315.71 231.84 313.12
  Q 234.28 312.14 231.31 310.53
  A 1.34 1.33 48.4 0 0 230.18 310.46
  Q 225.34 312.37 220.18 314.22
  C 217.03 315.34 214.83 315.07 214.37 311.30
  Q 214.32 310.88 214.71 310.73
  L 224.01 307.18
  A 1.52 1.52 0.0 0 0 224.65 304.81
  C 223.89 303.85 222.59 303.92 221.44 304.37
  Q 217.77 305.82 214.14 307.39
  C 212.36 308.16 211.55 307.67 210.97 305.94
  A 1.45 1.44 67.4 0 1 211.68 304.20
  C 216.27 301.85 221.88 301.47 220.35 294.34
  Q 219.49 290.32 218.56 286.61
  A 2.23 2.22 -18.1 0 0 215.56 285.09
  L 183.62 298.13
  A 1.44 1.42 -17.6 0 0 182.76 299.77
  C 183.18 301.64 185.18 302.19 186.92 301.46
  Q 190.82 299.84 194.62 298.25
  A 0.99 0.98 84.4 0 1 195.96 299.36
  Q 194.76 305.22 190.94 309.91
  Q 190.15 310.87 190.29 311.58
  Q 190.48 312.51 191.70 312.94
  A 2.37 2.36 -55.5 0 0 194.00 312.51
  L 195.89 310.91
  A 0.50 0.50 0.0 0 1 196.71 311.20
  Z
  M 174.48 331.55
  L 191.18 325.49
  Q 191.78 325.28 192.22 325.74
  L 194.20 327.80
  A 0.79 0.78 56.8 0 1 193.94 329.07
  L 188.01 331.57
  A 0.44 0.43 84.0 0 0 187.75 331.90
  Q 187.60 332.78 188.75 332.96
  Q 189.19 333.03 189.77 332.85
  Q 193.50 331.71 197.05 330.45
  A 2.35 2.35 0.0 0 0 198.16 326.85
  L 185.87 309.93
  A 2.60 2.60 0.0 0 0 182.61 309.13
  L 177.00 311.95
  A 0.93 0.93 0.0 0 1 175.71 311.44
  Q 174.71 308.67 175.44 305.76
  Q 175.55 305.30 175.32 304.90
  Q 174.30 303.09 171.96 304.00
  Q 166.73 306.04 161.48 308.15
  Q 161.02 308.33 160.73 307.93
  L 159.65 306.43
  A 1.07 1.07 0.0 0 0 158.95 306.00
  Q 156.52 305.64 154.69 307.21
  Q 154.27 307.58 154.52 308.08
  Q 157.24 313.53 156.70 319.63
  C 156.62 320.57 155.86 321.71 155.98 322.70
  Q 156.05 323.21 156.45 323.52
  Q 159.41 325.83 161.27 323.33
  A 0.93 0.92 -46.4 0 1 162.73 323.29
  Q 165.70 326.95 168.71 330.49
  Q 171.73 334.04 171.37 338.68
  Q 171.32 339.28 171.87 339.55
  Q 173.61 340.39 175.61 339.93
  A 0.74 0.74 0.0 0 0 176.18 339.20
  Q 176.14 335.56 174.18 332.45
  A 0.61 0.61 0.0 0 1 174.48 331.55
  Z
  M 226.74 333.71
  Q 227.96 332.75 229.49 332.74
  A 1.46 1.46 0.0 0 0 230.81 330.69
  Q 229.31 327.34 227.74 324.29
  Q 226.66 322.18 224.75 322.89
  Q 213.84 326.95 207.06 328.86
  Q 206.57 329.00 206.21 328.64
  L 204.64 327.06
  Q 204.29 326.70 203.80 326.78
  Q 200.20 327.36 199.91 330.91
  A 1.29 1.28 -7.0 0 1 199.04 332.02
  L 183.37 337.32
  A 0.75 0.75 0.0 0 0 183.06 338.54
  L 189.15 345.10
  A 2.08 2.08 0.0 0 0 191.35 345.65
  L 206.89 340.33
  Q 207.38 340.16 207.69 340.58
  L 208.99 342.38
  A 0.60 0.60 0.0 0 1 208.69 343.31
  L 186.71 350.62
  A 0.96 0.96 0.0 0 0 186.35 352.22
  Q 187.14 352.99 188.19 353.28
  Q 189.04 353.51 190.19 353.11
  Q 205.34 347.85 220.49 342.55
  C 223.76 341.40 228.86 339.08 233.33 337.93
  C 236.19 337.19 241.45 339.97 242.05 335.12
  A 0.47 0.46 89.1 0 0 241.52 334.60
  C 239.53 334.88 238.14 333.98 236.39 333.97
  Q 231.61 333.95 226.87 334.08
  Q 226.24 334.09 226.74 333.71
  Z"
/>
<path fill="#ffffff" d="
  M 173.29 242.80
  C 171.29 239.65 170.75 233.29 175.18 231.47
  Q 175.63 231.28 176.11 231.41
  Q 179.21 232.26 181.04 234.78
  C 182.13 236.29 182.94 240.65 182.94 242.68
  C 182.94 245.41 184.44 247.09 184.77 249.48
  C 185.20 252.55 187.97 261.83 183.65 263.04
  C 181.17 263.74 179.67 261.38 178.40 259.81
  Q 178.09 259.44 178.01 258.96
  Q 177.75 257.40 176.56 256.35
  A 0.98 0.98 0.0 0 1 176.24 255.45
  Q 176.52 253.72 175.34 252.46
  A 1.42 1.42 0.0 0 1 174.98 251.31
  Q 175.20 249.62 173.87 248.74
  Q 173.48 248.48 173.49 248.01
  L 173.54 243.69
  Q 173.55 243.21 173.29 242.80
  Z
  M 177.4531 240.9451
  A 3.12 2.30 76.6 0 0 178.9674 237.3770
  A 3.12 2.30 76.6 0 0 176.0069 234.8749
  A 3.12 2.30 76.6 0 0 174.4926 238.4430
  A 3.12 2.30 76.6 0 0 177.4531 240.9451
  Z"
/>
<path fill="#ffffff" d="
  M 150.10 245.61
  L 150.88 246.50
  Q 151.25 246.92 151.15 247.47
  Q 150.73 249.86 151.52 252.13
  Q 151.66 252.55 151.99 252.85
  Q 152.64 253.47 152.83 254.73
  Q 154.22 263.88 157.92 272.32
  A 2.60 2.59 56.2 0 1 157.34 275.25
  Q 155.56 276.96 153.52 274.73
  C 148.40 269.13 144.97 263.26 143.07 255.90
  C 142.29 252.85 139.47 247.47 142.36 244.58
  Q 145.20 241.75 149.15 243.61
  A 0.86 0.73 -4.7 0 1 149.36 243.76
  Q 149.97 244.30 149.88 244.81
  Q 149.80 245.26 150.10 245.61
  Z
  M 145.10 245.34
  L 143.57 248.20
  Q 143.34 248.63 143.63 249.01
  L 145.40 251.38
  A 1.29 1.29 0.0 0 0 147.46 251.38
  Q 150.40 247.42 146.43 244.98
  A 0.95 0.95 0.0 0 0 145.10 245.34
  Z"
/>
<path fill="#ffffff" d="
  M 344.75 368.82
  L 345.06 369.95
  Q 345.25 370.65 344.53 370.65
  L 301.48 370.64
  Q 300.85 370.64 300.94 370.01
  Q 301.16 368.61 299.95 367.77
  A 1.68 1.64 -83.0 0 1 299.34 366.97
  Q 298.76 365.28 299.55 363.73
  A 0.56 0.56 0.0 0 1 300.09 363.43
  L 303.65 363.72
  Q 304.22 363.77 304.56 363.32
  C 305.67 361.89 306.85 362.39 308.10 361.89
  Q 314.87 359.20 319.48 353.81
  C 322.72 350.02 324.07 344.08 326.05 339.28
  Q 326.75 337.59 324.72 336.42
  A 0.72 0.71 22.0 0 1 324.38 335.63
  L 324.67 334.44
  Q 324.83 333.80 324.35 333.34
  L 320.17 329.36
  A 0.63 0.62 33.2 0 1 320.02 328.66
  L 320.74 326.96
  A 1.08 1.07 41.2 0 0 320.67 325.99
  Q 319.87 324.67 320.52 323.25
  Q 320.74 322.77 320.61 322.26
  C 319.96 319.63 320.44 316.99 319.55 314.65
  Q 317.90 310.28 314.89 306.70
  C 313.80 305.40 312.10 304.55 310.80 303.14
  Q 310.46 302.78 310.45 302.29
  L 310.19 287.07
  A 1.66 1.65 -11.2 0 1 311.25 285.50
  C 317.76 282.97 328.20 278.62 331.87 272.32
  A 0.61 0.60 -30.0 0 1 333.00 272.62
  Q 333.03 302.37 332.99 332.45
  Q 332.99 336.13 334.08 338.37
  Q 335.64 341.55 338.22 343.07
  Q 342.28 345.44 344.26 348.59
  Q 345.43 350.45 345.39 353.68
  Q 345.31 360.13 345.46 366.58
  Q 345.48 367.12 345.17 367.57
  L 344.91 367.94
  Q 344.62 368.34 344.75 368.82
  Z"
/>
<path fill="#ffffff" d="
  M 384.47 357.37
  L 383.44 356.31
  A 1.33 1.31 -66.0 0 1 383.07 355.32
  Q 383.17 353.42 382.16 351.88
  Q 381.88 351.46 381.87 350.95
  L 381.83 349.33
  Q 381.82 348.76 381.34 348.45
  Q 380.48 347.91 380.26 346.26
  Q 379.84 343.03 377.50 338.82
  Q 377.26 338.38 377.45 337.91
  Q 377.93 336.74 377.06 335.95
  Q 376.67 335.59 376.51 335.10
  Q 370.28 315.82 364.40 296.45
  Q 361.22 285.96 357.61 276.86
  Q 356.81 274.86 358.55 276.13
  Q 364.28 280.33 371.27 281.48
  A 1.86 1.82 -17.0 0 1 372.26 281.99
  Q 372.63 282.36 372.84 282.41
  Q 386.48 285.88 400.22 282.66
  Q 406.15 281.28 412.10 279.80
  A 0.48 0.48 0.0 0 1 412.70 280.26
  L 412.50 368.15
  Q 412.50 368.58 412.72 368.95
  Q 412.96 369.36 412.85 369.64
  Q 412.17 371.20 410.77 370.95
  Q 408.75 370.58 408.68 370.58
  Q 398.27 370.63 387.87 370.67
  Q 387.27 370.68 387.12 370.09
  Q 386.79 368.78 387.27 367.50
  A 0.60 0.58 -44.2 0 0 387.28 367.12
  L 385.36 361.02
  A 0.69 0.69 0.0 0 0 385.11 360.68
  Q 383.92 359.81 384.63 358.41
  Q 384.92 357.83 384.47 357.37
  Z"
/>
<path fill="#ffffff" d="
  M 209.33 301.57
  L 209.85 303.33
  Q 209.97 303.72 209.59 303.87
  L 206.09 305.23
  A 0.72 0.72 0.0 0 0 205.70 306.21
  L 207.01 309.01
  Q 207.35 309.74 206.62 310.08
  L 202.33 312.03
  Q 201.57 312.37 201.37 311.57
  L 200.87 309.66
  A 0.77 0.76 88.6 0 0 200.30 309.11
  L 198.32 308.63
  Q 197.66 308.47 197.95 307.86
  Q 200.43 302.70 201.02 297.00
  A 2.08 2.07 -8.2 0 1 202.30 295.30
  L 212.61 291.15
  Q 213.37 290.84 213.79 291.55
  Q 216.75 296.51 213.18 299.33
  C 212.30 300.03 210.71 300.25 209.63 300.84
  A 0.64 0.63 -23.0 0 0 209.33 301.57
  Z"
/>
<path fill="#ffffff" d="
  M 51.63 296.01
  Q 52.33 295.35 52.99 295.23
  C 63.64 293.28 76.81 291.12 90.11 292.27
  C 92.62 292.49 94.81 293.65 97.58 293.81
  C 100.68 293.99 103.29 294.61 106.29 294.68
  A 1.88 1.87 15.8 0 1 107.87 297.50
  Q 105.29 301.90 102.14 307.11
  Q 93.85 320.81 91.00 336.81
  A 1.63 1.63 0.0 0 0 91.67 338.44
  C 93.71 339.86 94.15 342.32 95.77 343.94
  Q 100.89 349.06 106.96 353.00
  C 109.96 354.93 111.59 356.65 115.41 357.21
  A 1.11 1.11 0.0 0 1 116.01 359.12
  Q 115.24 359.86 113.50 359.35
  Q 105.23 356.95 97.37 353.50
  Q 92.81 351.49 88.00 350.05
  Q 77.07 346.78 66.08 341.42
  C 57.97 337.47 50.06 336.59 39.50 336.25
  Q 29.12 335.91 19.40 339.42
  Q 18.95 339.59 18.47 339.52
  L 9.37 338.25
  Q 8.88 338.19 8.61 337.78
  C 7.04 335.47 9.51 331.88 11.14 329.37
  Q 11.42 328.94 11.37 328.43
  L 11.32 327.96
  Q 11.27 327.45 11.52 326.99
  Q 24.01 304.77 48.24 296.58
  Q 49.12 296.29 50.76 296.34
  Q 51.26 296.35 51.63 296.01
  Z"
/>
<path fill="#ffffff" d="
  M 296.34 317.02
  C 295.07 316.00 294.20 316.07 292.64 315.76
  Q 292.07 315.65 292.09 315.07
  L 292.29 310.14
  Q 292.31 309.58 292.71 309.19
  L 298.19 303.87
  Q 298.55 303.52 299.05 303.47
  Q 303.66 302.97 306.86 305.16
  Q 315.23 310.88 317.50 319.49
  Q 317.81 320.69 317.57 324.63
  Q 317.54 325.13 317.18 325.47
  C 308.78 333.17 307.89 326.08 302.04 322.10
  C 299.63 320.45 298.44 318.70 296.34 317.02
  Z"
/>
<rect fill="#ffffff" x="-5.44" y="-2.57" transform="translate(166.07,313.15) rotate(-22.4)" width="10.88" height="5.14" rx="1.78"/>
<path fill="#ffffff" d="
  M 177.85 319.47
  A 0.91 0.91 0.0 0 1 176.71 318.87
  L 176.47 318.09
  A 2.66 2.49 73.0 0 1 178.08 314.82
  L 181.50 313.77
  A 2.66 2.49 73.0 0 1 184.66 315.59
  L 184.90 316.36
  A 0.91 0.91 0.0 0 1 184.29 317.50
  L 177.85 319.47
  Z"
/>
<path fill="#ffffff" d="
  M 284.08 352.31
  L 284.58 353.20
  A 0.73 0.72 -41.7 0 1 284.53 354.01
  Q 281.72 357.74 276.74 358.19
  C 272.98 358.52 270.00 354.95 268.18 351.97
  Q 264.91 346.63 261.62 341.29
  C 260.06 338.77 257.38 336.85 256.39 334.20
  C 255.37 331.51 253.32 330.10 252.24 327.72
  Q 251.23 325.48 250.14 323.29
  A 0.89 0.87 -42.3 0 1 250.19 322.41
  Q 252.96 318.11 257.57 317.60
  Q 259.82 317.34 262.37 318.86
  Q 268.76 322.65 271.44 326.07
  Q 278.40 335.00 285.13 344.09
  A 1.17 1.15 34.4 0 1 285.32 345.05
  Q 284.77 347.38 285.54 349.61
  Q 285.68 350.03 285.34 350.32
  L 284.28 351.20
  Q 283.71 351.67 284.08 352.31
  Z"
/>
<path fill="#ffffff" d="
  M 174.08 321.01
  A 0.87 0.87 0.0 0 1 173.38 322.02
  L 169.17 322.80
  A 3.43 1.95 -10.5 0 1 165.44 321.51
  L 165.40 321.27
  A 3.43 1.95 -10.5 0 1 168.42 318.73
  L 172.63 317.95
  A 0.87 0.87 0.0 0 1 173.64 318.65
  L 174.08 321.01
  Z"
/>
<path fill="#ffffff" d="
  M 189.14 322.65
  A 0.67 0.67 0.0 0 1 188.69 323.48
  L 183.71 324.96
  A 2.00 1.95 -16.5 0 1 181.24 323.65
  L 181.22 323.58
  A 2.00 1.95 -16.5 0 1 182.58 321.14
  L 187.56 319.67
  A 0.67 0.67 0.0 0 1 188.39 320.12
  L 189.14 322.65
  Z"
/>
<path fill="#ffffff" d="
  M 170.45 326.04
  C 173.30 324.70 176.44 321.79 178.94 325.65
  A 0.99 0.99 0.0 0 1 178.47 327.11
  L 173.40 329.09
  Q 172.85 329.31 172.43 328.90
  L 170.32 326.82
  Q 169.82 326.34 170.45 326.04
  Z"
/>
<path fill="#ffffff" d="
  M 222.95 327.44
  A 0.22 0.22 0.0 0 1 223.22 327.58
  L 223.53 328.51
  A 2.84 1.89 71.9 0 1 222.61 331.80
  L 211.30 335.50
  A 2.84 1.89 71.9 0 1 208.62 333.39
  L 208.32 332.45
  A 0.22 0.22 0.0 0 1 208.46 332.18
  L 222.95 327.44
  Z"
/>
<path fill="#ffffff" d="
  M 306.50 332.82
  L 307.68 332.21
  Q 308.13 331.98 308.58 332.18
  L 313.10 334.16
  Q 313.66 334.40 314.12 334.01
  L 317.16 331.46
  A 0.82 0.81 -63.7 0 1 317.71 331.27
  C 322.14 331.42 323.12 336.04 321.04 339.23
  C 319.94 340.91 320.62 341.72 320.00 343.31
  C 317.87 348.77 314.92 352.31 310.02 355.75
  Q 307.48 357.54 305.09 359.53
  Q 304.72 359.83 304.26 359.72
  L 303.93 359.65
  A 0.87 0.85 -54.9 0 0 303.24 359.78
  L 301.45 360.99
  A 0.56 0.55 63.3 0 1 300.62 360.71
  Q 300.28 359.73 300.72 358.83
  Q 300.92 358.42 300.91 357.97
  C 300.84 355.10 300.79 352.60 301.22 349.61
  C 302.06 343.75 301.58 338.51 303.37 332.39
  Q 303.75 331.06 304.64 332.12
  Q 305.21 332.82 306.23 332.87
  A 0.56 0.54 -54.3 0 0 306.50 332.82
  Z"
/>
<path fill="#ffffff" d="
  M 205.03 337.13
  A 0.55 0.55 0.0 0 1 204.68 337.82
  L 200.82 339.10
  A 10.25 0.56 -18.3 0 1 190.92 341.78
  L 190.04 339.12
  A 10.25 0.56 -18.3 0 1 199.59 335.37
  L 203.45 334.10
  A 0.55 0.55 0.0 0 1 204.14 334.45
  L 205.03 337.13
  Z"
/>
<path fill="#ffffff" d="
  M 212.98 338.59
  A 0.68 0.68 0.0 0 1 213.50 337.79
  L 213.79 337.73
  A 11.01 1.56 -11.7 0 1 224.89 337.03
  L 224.89 337.03
  A 11.01 1.56 -11.7 0 1 214.42 340.79
  L 214.14 340.84
  A 0.68 0.68 0.0 0 1 213.33 340.32
  L 212.98 338.59
  Z"
/>
<path fill="#ffffff" d="
  M 81.67 352.53
  C 84.84 352.19 90.25 354.76 93.38 355.77
  Q 96.99 356.94 100.84 359.05
  Q 104.46 361.05 108.17 362.70
  A 0.63 0.62 37.1 0 1 108.32 363.75
  C 104.06 367.29 99.76 370.16 94.01 370.39
  Q 72.20 371.25 50.43 370.18
  Q 48.07 370.07 45.71 369.32
  C 43.34 368.57 41.90 368.37 39.69 367.09
  Q 28.76 360.78 18.62 352.15
  C 15.20 349.23 18.29 346.00 20.60 344.08
  Q 21.64 343.22 24.20 342.75
  C 26.50 342.33 28.46 341.34 30.66 341.11
  Q 42.80 339.88 54.48 342.76
  C 62.24 344.68 72.02 349.22 80.75 352.42
  A 2.11 2.06 51.1 0 0 81.67 352.53
  Z"
/>
<path fill="#ffffff" d="
  M 5.22 367.96
  C 2.30 365.71 2.96 358.60 2.91 354.12
  Q 2.87 349.77 4.76 346.37
  Q 4.99 345.96 5.41 345.74
  L 10.75 342.94
  Q 11.17 342.72 11.63 342.77
  C 13.96 342.99 13.73 341.44 15.34 341.01
  Q 16.24 340.77 16.77 341.46
  A 0.91 0.91 0.0 0 1 16.56 342.77
  Q 9.37 347.59 15.46 354.31
  Q 25.34 365.19 36.80 368.79
  Q 42.92 370.71 36.50 370.69
  L 5.71 370.61
  Q 4.88 370.61 5.13 369.83
  L 5.48 368.76
  Q 5.63 368.27 5.22 367.96
  Z"
/>
<path fill="#ffffff" d="
  M 220.42 366.23
  L 255.62 353.44
  A 0.72 0.70 -82.8 0 0 255.97 353.16
  Q 256.90 351.68 258.78 352.58
  A 1.91 1.91 0.0 0 1 259.83 354.63
  Q 258.49 362.33 259.82 370.03
  Q 259.92 370.65 259.29 370.65
  L 220.26 370.63
  Q 219.90 370.63 219.90 370.27
  L 219.91 366.95
  Q 219.91 366.42 220.42 366.23
  Z"
/>
<path fill="#ffffff" d="
  M 265.17 354.92
  Q 266.41 356.35 267.09 356.29
  A 0.53 0.49 -24.2 0 1 267.45 356.41
  C 271.31 359.92 274.46 363.04 278.94 361.88
  C 280.92 361.37 283.05 359.46 285.93 358.85
  A 1.79 1.78 83.9 0 1 288.08 360.59
  Q 288.10 364.73 286.77 368.63
  A 2.91 2.89 -80.6 0 1 284.03 370.60
  L 263.49 370.66
  Q 263.08 370.66 263.06 370.26
  C 262.79 365.45 261.88 359.25 264.52 354.97
  A 0.40 0.40 0.0 0 1 265.17 354.92
  Z"
/>
<path fill="#ffffff" d="
  M 112.08 369.47
  C 117.19 364.82 132.92 349.96 139.23 360.43
  C 140.74 362.93 142.42 367.41 141.08 370.24
  Q 140.85 370.71 140.33 370.70
  Q 128.79 370.54 117.28 370.66
  C 115.71 370.67 114.67 370.37 112.99 370.98
  A 0.90 0.90 0.0 0 1 112.08 369.47
  Z"
/>
<path fill="#ffffff" d="
  M 107.37 370.12
  C 108.13 370.01 108.56 369.72 109.48 369.89
  Q 110.10 370.01 109.47 370.09
  Q 108.42 370.23 107.38 370.11
  Q 107.37 370.10 107.37 370.12
  Q 107.37 370.12 107.37 370.12
  Z"
/>
<path fill="#ffffff" d="
  M 510.12 375.13
  L 510.41 374.95
  A 0.30 0.30 0.0 0 1 510.87 375.20
  L 510.89 375.75
  Q 510.91 376.28 510.38 376.23
  Q 509.28 376.13 508.86 376.98
  Q 508.59 377.52 507.98 377.52
  L 3.75 377.53
  A 0.68 0.68 0.0 0 1 3.10 377.05
  Q 2.82 376.14 1.85 376.18
  Q 1.12 376.20 1.12 375.48
  L 1.12 375.13
  A 0.22 0.22 0.0 0 1 1.49 374.96
  Q 2.17 375.57 2.82 375.08
  Q 5.07 373.41 7.50 373.66
  Q 9.94 373.91 10.01 373.91
  C 23.77 373.94 37.56 373.59 51.31 374.16
  C 56.09 374.36 61.64 373.98 65.57 373.97
  Q 158.76 373.88 251.94 374.13
  Q 252.06 374.13 255.03 373.91
  C 256.91 373.78 258.59 374.38 260.32 374.31
  Q 265.41 374.09 270.50 374.09
  Q 387.15 373.96 503.80 373.90
  Q 504.29 373.90 504.73 373.67
  Q 505.02 373.51 505.33 373.45
  Q 505.58 373.40 505.87 373.51
  Q 507.66 374.24 509.35 375.15
  Q 509.74 375.36 510.12 375.13
  Z"
/>
<path fill="#ffffff" d="
  M 52.26 381.68
  Q 52.96 381.66 53.25 380.93
  A 0.76 0.75 9.6 0 1 53.92 380.46
  L 61.88 380.17
  Q 62.54 380.15 62.84 380.73
  L 63.20 381.45
  A 0.72 0.72 0.0 0 0 64.13 381.78
  L 64.86 381.45
  Q 65.21 381.30 65.56 381.41
  Q 73.45 383.97 76.56 390.85
  Q 78.27 394.60 78.44 403.41
  Q 78.79 420.70 78.41 438.00
  C 78.39 439.15 78.89 440.23 79.01 441.44
  Q 79.07 442.00 78.51 442.00
  L 60.43 442.00
  A 0.55 0.55 0.0 0 1 59.99 441.12
  L 60.85 439.99
  Q 61.28 439.42 61.28 438.72
  L 61.25 402.47
  Q 61.25 401.84 60.85 401.36
  L 58.67 398.78
  Q 58.37 398.43 57.91 398.37
  C 54.33 397.84 53.27 400.49 53.25 403.63
  Q 53.13 422.52 53.30 441.42
  Q 53.30 442.00 52.72 442.00
  L 35.76 442.00
  Q 35.14 442.00 35.13 441.37
  Q 35.06 423.05 35.19 404.78
  C 35.20 402.96 35.75 401.25 35.94 399.76
  Q 37.77 385.31 51.36 380.83
  Q 51.84 380.67 51.96 381.16
  L 52.04 381.51
  Q 52.08 381.68 52.26 381.68
  Z"
/>
<path fill="#ffffff" d="
  M 245.15 380.88
  L 245.31 380.55
  Q 245.46 380.27 245.64 380.53
  L 246.48 381.74
  Q 247.04 382.54 247.54 381.71
  L 247.96 381.04
  Q 248.23 380.59 248.76 380.52
  Q 255.64 379.66 261.96 381.95
  Q 265.93 383.39 268.50 386.59
  C 271.01 389.72 272.87 393.27 272.95 397.52
  Q 273.34 417.76 273.15 438.03
  C 273.14 439.48 273.44 439.88 274.03 441.14
  A 0.58 0.58 0.0 0 1 273.51 441.97
  L 256.53 442.04
  Q 255.95 442.04 255.95 441.46
  Q 256.04 429.18 255.93 402.89
  Q 255.92 400.64 254.70 399.39
  Q 253.52 398.19 251.55 398.23
  C 249.08 398.27 247.84 399.75 247.86 402.23
  Q 247.90 406.43 247.63 410.62
  A 0.53 0.53 0.0 0 0 248.19 411.18
  L 252.07 410.94
  A 0.65 0.65 0.0 0 1 252.76 411.58
  L 252.79 427.38
  A 0.65 0.64 1.3 0 1 252.11 428.02
  L 248.44 427.86
  A 0.68 0.68 0.0 0 0 247.73 428.56
  L 247.99 441.39
  Q 248.00 442.02 247.36 442.02
  L 230.05 442.00
  Q 229.55 442.00 229.56 441.49
  Q 229.95 421.84 229.66 402.25
  Q 229.65 401.74 229.89 401.31
  Q 230.14 400.88 230.18 400.39
  Q 230.52 396.70 231.61 393.19
  C 232.76 389.46 235.71 387.14 238.49 384.54
  C 240.26 382.88 242.18 382.35 244.39 381.55
  A 1.42 1.41 3.4 0 0 245.15 380.88
  Z"
/>
<path fill="#ffffff" d="
  M 319.07 381.31
  L 319.18 380.97
  Q 319.29 380.62 319.61 380.80
  C 322.62 382.45 325.88 382.83 328.52 384.64
  Q 336.68 390.21 340.97 399.30
  A 1.96 1.92 34.2 0 1 341.15 400.20
  C 340.99 402.70 343.39 403.36 342.85 406.37
  A 0.75 0.73 2.9 0 1 342.17 406.97
  L 324.27 408.21
  Q 323.70 408.25 323.56 407.69
  Q 322.29 402.51 318.16 400.08
  C 312.12 396.52 305.93 398.67 301.49 403.76
  C 299.41 406.14 298.92 406.85 299.11 410.26
  Q 299.27 413.23 299.08 416.18
  Q 299.04 416.67 299.27 417.10
  Q 304.39 426.71 315.07 424.98
  C 317.45 424.60 321.14 421.90 322.22 419.68
  Q 323.23 417.63 324.55 415.80
  Q 324.89 415.31 324.65 414.77
  L 324.14 413.61
  A 0.89 0.89 0.0 0 1 324.44 412.52
  L 324.70 412.34
  Q 325.27 411.94 325.67 412.50
  L 326.15 413.14
  Q 326.48 413.60 327.05 413.59
  C 331.05 413.56 335.57 413.01 339.48 413.45
  Q 340.69 413.58 341.35 412.86
  A 1.09 1.09 0.0 0 1 343.23 413.73
  C 341.49 427.89 333.73 439.98 319.01 442.61
  Q 314.50 443.41 307.58 443.21
  Q 307.02 443.20 306.58 442.84
  L 306.38 442.68
  Q 306.28 442.60 306.16 442.60
  Q 302.91 442.69 299.30 440.95
  Q 287.66 435.36 282.93 424.27
  C 280.49 418.53 280.07 407.38 282.38 401.37
  Q 290.86 379.33 316.07 380.31
  Q 316.51 380.33 316.88 380.58
  L 318.34 381.57
  A 0.48 0.48 0.0 0 0 319.07 381.31
  Z"
/>
<path fill="#ffffff" d="
  M 390.24 384.98
  Q 390.39 385.09 390.51 385.24
  Q 390.58 385.33 390.58 385.44
  L 390.57 394.39
  Q 390.57 394.81 390.25 395.09
  L 390.04 395.27
  A 0.48 0.47 -46.0 0 0 390.05 396.01
  L 391.50 397.13
  A 0.86 0.86 0.0 0 1 390.95 398.67
  L 380.05 398.42
  Q 379.62 398.41 379.24 398.22
  Q 378.35 397.79 377.78 398.54
  Q 377.45 398.97 377.46 399.81
  Q 377.57 419.83 377.56 440.94
  Q 377.56 442.00 376.50 442.00
  L 359.86 442.00
  Q 359.22 442.00 359.22 441.36
  L 359.29 399.83
  Q 359.29 398.38 357.84 398.41
  L 345.95 398.60
  A 0.95 0.95 0.0 0 1 345.38 396.88
  Q 346.11 396.35 345.89 395.33
  C 345.28 392.52 345.47 387.32 345.79 384.40
  Q 345.88 383.53 345.16 383.06
  A 0.59 0.59 0.0 0 1 345.48 381.98
  L 389.47 382.01
  A 0.88 0.85 -68.4 0 0 390.11 381.72
  L 390.35 381.45
  Q 390.50 381.28 390.68 381.42
  L 391.51 382.06
  Q 391.99 382.43 391.56 382.86
  L 390.20 384.23
  Q 389.81 384.63 390.24 384.98
  Z"
/>
<rect fill="#ffffff" x="7.11" y="381.97" width="18.20" height="60.02" rx="0.26"/>
<path fill="#ffffff" d="
  M 97.31 398.37
  L 84.91 398.61
  A 0.72 0.72 0.0 0 1 84.17 397.91
  L 83.75 383.29
  A 1.21 1.21 0.0 0 1 84.96 382.04
  L 129.94 381.95
  Q 131.50 381.95 129.99 382.84
  Q 129.62 383.06 129.34 383.72
  Q 129.15 384.16 129.18 384.79
  Q 129.37 390.42 129.11 396.01
  Q 129.06 397.01 130.06 397.24
  Q 130.55 397.35 130.31 397.79
  L 130.15 398.08
  Q 129.89 398.58 129.32 398.57
  L 118.69 398.48
  Q 118.31 398.47 118.00 398.24
  L 117.76 398.06
  A 1.10 1.09 18.7 0 0 116.00 398.93
  L 116.06 441.60
  Q 116.06 442.00 115.65 442.00
  L 98.62 442.00
  Q 98.00 442.00 98.00 441.37
  L 98.00 399.05
  Q 98.00 398.36 97.31 398.37
  Z"
/>
<path fill="#ffffff" d="
  M 151.60 425.00
  L 167.50 425.00
  A 0.50 0.49 90.0 0 1 167.99 425.50
  L 168.00 441.24
  Q 168.00 441.85 167.39 441.89
  Q 157.67 442.49 149.76 441.72
  Q 148.74 441.62 147.91 440.66
  Q 147.54 440.24 147.43 440.78
  L 147.36 441.17
  A 0.47 0.47 0.0 0 1 146.75 441.52
  C 142.57 440.12 136.69 437.22 135.59 432.50
  A 1.11 1.10 5.1 0 0 134.97 431.76
  Q 133.78 431.23 134.39 429.79
  A 1.19 1.18 -43.0 0 0 134.42 428.96
  Q 133.00 424.82 132.99 421.25
  Q 132.98 410.19 133.02 399.14
  A 2.00 1.95 -30.2 0 1 133.30 398.13
  Q 134.63 395.88 134.37 393.33
  Q 134.31 392.81 134.57 392.36
  C 137.88 386.49 141.16 382.56 148.76 382.18
  Q 154.26 381.90 167.45 381.97
  Q 168.00 381.97 168.00 382.52
  L 168.00 397.98
  A 0.59 0.59 0.0 0 1 167.42 398.57
  Q 161.94 398.63 156.63 398.38
  C 153.92 398.25 152.52 399.47 151.02 401.47
  A 0.84 0.83 45.7 0 0 151.01 402.46
  L 153.02 405.20
  Q 153.35 405.65 153.90 405.64
  L 165.74 405.37
  A 1.09 1.08 -86.8 0 1 166.84 406.60
  Q 166.04 412.57 166.90 418.51
  A 0.99 0.99 0.0 0 1 165.90 419.64
  L 151.82 419.35
  A 0.78 0.77 0.7 0 0 151.03 420.11
  L 150.96 424.35
  Q 150.95 425.00 151.60 425.00
  Z"
/>
<path fill="#ffffff" d="
  M 219.78 427.60
  L 225.19 440.45
  A 1.15 1.14 -11.6 0 1 224.14 442.04
  L 208.84 442.05
  A 2.70 2.69 -11.3 0 1 206.33 440.38
  C 203.21 432.84 198.78 426.15 198.93 417.75
  Q 199.01 412.77 198.69 407.79
  Q 198.65 407.26 199.17 407.17
  C 203.13 406.53 206.91 405.67 205.92 400.53
  A 0.66 0.66 0.0 0 0 205.18 400.00
  Q 203.15 400.30 202.41 398.41
  Q 202.17 397.82 201.59 398.07
  Q 199.41 399.02 197.01 398.25
  Q 195.96 397.92 195.96 399.02
  L 195.94 441.40
  Q 195.94 442.00 195.35 442.00
  L 178.49 442.00
  Q 177.97 442.00 177.97 441.49
  L 177.94 382.09
  A 0.19 0.19 0.0 0 1 178.14 381.90
  Q 186.43 382.00 194.82 382.03
  Q 207.14 382.08 211.15 383.43
  Q 222.38 387.22 223.59 401.09
  Q 223.73 402.64 223.10 404.83
  C 222.58 406.62 222.66 408.14 221.72 409.74
  Q 219.11 414.18 215.20 417.56
  Q 214.74 417.95 215.16 418.38
  Q 217.49 420.84 218.29 424.21
  Q 218.40 424.67 218.78 424.97
  Q 219.94 425.89 219.75 427.37
  A 0.40 0.40 0.0 0 0 219.78 427.60
  Z"
/>
<rect fill="#ffffff" x="397.01" y="381.97" width="18.14" height="60.02" rx="0.26"/>
<path fill="#ffffff" d="
  M 444.22 400.97
  L 449.26 383.09
  A 0.58 0.57 -81.9 0 1 449.81 382.67
  L 469.36 382.40
  A 0.17 0.16 11.3 0 1 469.52 382.63
  Q 461.50 401.29 454.06 420.24
  C 451.72 426.19 446.93 436.60 444.30 445.17
  A 0.34 0.33 42.2 0 1 443.67 445.20
  L 418.17 383.03
  Q 417.56 381.53 419.18 382.14
  C 419.68 382.33 420.00 382.51 420.64 382.52
  Q 427.36 382.69 434.07 382.78
  C 435.97 382.81 438.37 381.23 439.11 384.44
  Q 441.04 392.85 443.83 400.98
  Q 444.04 401.59 444.22 400.97
  Z"
/>
<path fill="#ffffff" d="
  M 485.54 441.17
  L 485.28 441.44
  Q 485.03 441.69 484.70 441.55
  Q 479.43 439.25 477.90 438.11
  Q 473.74 435.01 472.49 429.52
  Q 471.36 424.59 471.26 422.25
  Q 470.87 412.45 471.10 402.67
  C 471.17 399.60 471.86 396.87 472.55 393.89
  C 474.28 386.35 480.19 382.42 488.00 382.22
  Q 499.79 381.92 505.52 381.98
  Q 506.01 381.98 506.01 382.47
  L 506.02 397.84
  A 0.73 0.73 0.0 0 1 505.28 398.57
  L 493.00 398.42
  Q 492.42 398.41 491.98 398.80
  L 489.12 401.35
  Q 488.66 401.76 489.03 402.26
  L 491.20 405.14
  Q 491.54 405.59 492.11 405.58
  L 504.17 405.43
  A 0.74 0.73 -0.0 0 1 504.92 406.17
  L 504.88 418.81
  A 0.80 0.80 0.0 0 1 504.07 419.61
  L 489.93 419.38
  A 0.89 0.88 0.3 0 0 489.03 420.26
  L 489.00 424.37
  Q 488.99 425.00 489.62 425.00
  L 505.50 425.00
  Q 506.01 425.00 506.01 425.50
  L 506.00 441.26
  Q 506.00 441.88 505.38 441.91
  C 501.21 442.11 489.58 442.95 486.32 441.07
  Q 485.89 440.82 485.54 441.17
  Z"
/>
</svg>
