# Blender 4.0.2
# www.blender.org
mtllib Level4_Scene1.mtl
o Wall_+_Platform_2
v 7.000000 15.000000 10.000000
v 7.000000 16.000000 10.000000
v 7.000000 15.000000 -10.000000
v 7.000000 16.000000 -10.000000
v 25.000000 15.000000 10.000000
v 25.000000 16.000000 10.000000
v 25.000000 15.000000 -10.000000
v 25.000000 16.000000 -10.000000
v 0.000000 15.000000 -10.000000
v 0.000000 15.000000 10.000000
v 0.000000 16.000000 10.000000
v 0.000000 16.000000 -10.000000
v 7.000000 24.000000 10.000000
v 7.000000 24.000000 -10.000000
v 0.000000 24.000000 10.000000
v 0.000000 24.000000 -10.000000
v 7.000000 25.000000 10.000000
v 7.000000 25.000000 -10.000000
v 0.000000 25.000000 10.000000
v 0.000000 25.000000 -10.000000
v 15.000000 24.000000 10.000000
v 15.000000 24.000000 -10.000000
v 15.000000 25.000000 10.000000
v 15.000000 25.000000 -10.000000
v 17.000000 24.000000 10.000000
v 17.000000 24.000000 -10.000000
v 17.000000 25.000000 10.000000
v 17.000000 25.000000 -10.000000
v 15.000000 23.000000 10.000000
v 15.000000 23.000000 -10.000000
v 17.000000 23.000000 10.000000
v 17.000000 23.000000 -10.000000
v 19.000000 24.000000 10.000000
v 19.000000 24.000000 -10.000000
v 19.000000 23.000000 10.000000
v 19.000000 23.000000 -10.000000
v 17.000000 22.000000 10.000000
v 17.000000 22.000000 -10.000000
v 19.000000 22.000000 10.000000
v 19.000000 22.000000 -10.000000
v 21.000000 23.000000 10.000000
v 21.000000 23.000000 -10.000000
v 21.000000 22.000000 10.000000
v 21.000000 22.000000 -10.000000
v 19.000000 21.000000 10.000000
v 19.000000 21.000000 -10.000000
v 21.000000 21.000000 10.000000
v 21.000000 21.000000 -10.000000
v 24.000000 22.000000 10.000000
v 24.000000 22.000000 -10.000000
v 24.000000 21.000000 10.000000
v 24.000000 21.000000 -10.000000
v 26.000000 22.000000 10.000000
v 26.000000 22.000000 -10.000000
v 26.000000 21.000000 10.000000
v 26.000000 21.000000 -10.000000
v 24.000000 20.000000 10.000000
v 24.000000 20.000000 -10.000000
v 26.000000 20.000000 10.000000
v 26.000000 20.000000 -10.000000
v 28.000000 21.000000 10.000000
v 28.000000 21.000000 -10.000000
v 28.000000 20.000000 10.000000
v 28.000000 20.000000 -10.000000
v 26.000000 19.000000 10.000000
v 26.000000 19.000000 -10.000000
v 28.000000 19.000000 10.000000
v 28.000000 19.000000 -10.000000
v 30.000000 20.000000 10.000000
v 30.000000 20.000000 -10.000000
v 30.000000 19.000000 10.000000
v 30.000000 19.000000 -10.000000
v 28.000000 18.000000 10.000000
v 28.000000 18.000000 -10.000000
v 30.000000 18.000000 10.000000
v 30.000000 18.000000 -10.000000
v 35.000000 19.000000 10.000000
v 35.000000 19.000000 -10.000000
v 35.000000 18.000000 10.000000
v 35.000000 18.000000 -10.000000
v 35.000000 16.000000 -10.000000
v 35.000000 15.000000 -10.000000
v 35.000000 15.000000 10.000000
v 35.000000 16.000000 10.000000
v 37.000000 16.000000 -10.000000
v 37.000000 15.000000 -10.000000
v 37.000000 15.000000 10.000000
v 37.000000 16.000000 10.000000
v 39.000000 16.000000 -10.000000
v 39.000000 15.000000 -10.000000
v 39.000000 15.000000 10.000000
v 39.000000 16.000000 10.000000
v 40.000000 16.000000 -10.000000
v 40.000000 15.000000 -10.000000
v 40.000000 15.000000 10.000000
v 40.000000 16.000000 10.000000
v 39.000000 28.000000 -10.000000
v 39.000000 28.000000 10.000000
v 40.000000 28.000000 -10.000000
v 40.000000 28.000000 10.000000
v 37.000000 17.000000 -10.000000
v 37.000000 17.000000 10.000000
v 39.000000 17.000000 -10.000000
v 39.000000 17.000000 10.000000
v 7.000000 26.000000 10.000000
v 7.000000 26.000000 -10.000000
v 0.000000 26.000000 10.000000
v 0.000000 26.000000 -10.000000
v 15.000000 26.000000 10.000000
v 15.000000 26.000000 -10.000000
v 7.000000 31.000000 10.000000
v 7.000000 31.000000 -10.000000
v 0.000000 31.000000 10.000000
v 0.000000 31.000000 -10.000000
v 39.000000 31.000000 -10.000000
v 39.000000 31.000000 10.000000
v 40.000000 31.000000 -10.000000
v 40.000000 31.000000 10.000000
v 20.000000 28.000000 -10.000000
v 20.000000 28.000000 10.000000
v 20.000000 31.000000 -10.000000
v 20.000000 31.000000 10.000000
v 39.000000 32.000000 -10.000000
v 39.000000 32.000000 10.000000
v 40.000000 32.000000 -10.000000
v 40.000000 32.000000 10.000000
v 20.000000 32.000000 -10.000000
v 20.000000 32.000000 10.000000
v 47.000000 7.000000 -10.000000
v 47.000000 0.000000 -10.000000
v 47.000000 7.000000 10.000000
v 47.000000 0.000000 10.000000
v 0.000000 7.000000 -10.000000
v 0.000000 0.000000 -10.000000
v 0.000000 7.000000 10.000000
v 0.000000 0.000000 10.000000
v 15.000000 7.000000 10.000000
v 15.000000 8.000000 10.000000
v 15.000000 7.000000 -10.000000
v 15.000000 8.000000 -10.000000
v 16.000000 7.000000 10.000000
v 16.000000 8.000000 10.000000
v 16.000000 7.000000 -10.000000
v 16.000000 8.000000 -10.000000
v 17.000000 8.000000 -10.000000
v 17.000000 7.000000 -10.000000
v 17.000000 7.000000 10.000000
v 17.000000 8.000000 10.000000
v 19.000000 8.000000 -10.000000
v 19.000000 7.000000 -10.000000
v 19.000000 7.000000 10.000000
v 19.000000 8.000000 10.000000
v 17.000000 9.000000 -10.000000
v 17.000000 9.000000 10.000000
v 19.000000 9.000000 -10.000000
v 19.000000 9.000000 10.000000
v 21.000000 8.000000 -10.000000
v 21.000000 8.000000 10.000000
v 21.000000 9.000000 -10.000000
v 21.000000 9.000000 10.000000
v 19.000000 10.000000 -10.000000
v 19.000000 10.000000 10.000000
v 21.000000 10.000000 -10.000000
v 21.000000 10.000000 10.000000
v 23.000000 9.000000 -10.000000
v 23.000000 9.000000 10.000000
v 23.000000 10.000000 -10.000000
v 23.000000 10.000000 10.000000
v 21.000000 11.000000 -10.000000
v 21.000000 11.000000 10.000000
v 23.000000 11.000000 -10.000000
v 23.000000 11.000000 10.000000
v 25.000000 10.000000 -10.000000
v 25.000000 10.000000 10.000000
v 25.000000 11.000000 -10.000000
v 25.000000 11.000000 10.000000
v 23.000000 12.000000 -10.000000
v 23.000000 12.000000 10.000000
v 25.000000 12.000000 -10.000000
v 25.000000 12.000000 10.000000
v 19.000000 7.000000 -10.000000
v 19.000000 7.000000 10.000000
v 21.000000 7.000000 -10.000000
v 21.000000 7.000000 10.000000
v 21.000000 7.000000 -10.000000
v 21.000000 7.000000 10.000000
v 23.000000 7.000000 -10.000000
v 23.000000 7.000000 10.000000
v 23.000000 7.000000 -10.000000
v 23.000000 7.000000 10.000000
v 25.000000 7.000000 -10.000000
v 25.000000 7.000000 10.000000
v 40.000000 10.000000 -10.000000
v 40.000000 10.000000 10.000000
v 40.000000 7.000000 -10.000000
v 40.000000 7.000000 10.000000
v 40.000000 10.000000 -10.000000
v 40.000000 10.000000 10.000000
v 40.000000 11.000000 -10.000000
v 40.000000 11.000000 10.000000
v 40.000000 12.000000 -10.000000
v 40.000000 12.000000 10.000000
v 47.000000 10.000000 -10.000000
v 47.000000 10.000000 10.000000
v 47.000000 7.000000 -10.000000
v 47.000000 7.000000 10.000000
v 47.000000 10.000000 -10.000000
v 47.000000 10.000000 10.000000
v 47.000000 11.000000 -10.000000
v 47.000000 11.000000 10.000000
v 47.000000 12.000000 -10.000000
v 47.000000 12.000000 10.000000
v 40.000000 31.000000 -10.000000
v 40.000000 31.000000 10.000000
v 47.000000 31.000000 -10.000000
v 47.000000 31.000000 10.000000
v 40.000000 32.000000 -10.000000
v 40.000000 32.000000 10.000000
v 47.000000 32.000000 -10.000000
v 47.000000 32.000000 10.000000
v 40.000000 35.000000 -10.000000
v 40.000000 35.000000 10.000000
v 47.000000 35.000000 -10.000000
v 47.000000 35.000000 10.000000
v 40.000000 36.000000 -10.000000
v 40.000000 36.000000 10.000000
v 47.000000 36.000000 -10.000000
v 47.000000 36.000000 10.000000
v 30.000000 35.000000 -10.000000
v 30.000000 35.000000 10.000000
v 30.000000 36.000000 -10.000000
v 30.000000 36.000000 10.000000
v 40.000000 39.000000 -10.000000
v 40.000000 39.000000 10.000000
v 47.000000 39.000000 -10.000000
v 47.000000 39.000000 10.000000
v 40.000000 40.000000 -10.000000
v 40.000000 40.000000 10.000000
v 47.000000 40.000000 -10.000000
v 47.000000 40.000000 10.000000
v 33.000000 39.000000 -10.000000
v 33.000000 39.000000 10.000000
v 33.000000 40.000000 -10.000000
v 33.000000 40.000000 10.000000
v 40.000000 44.000000 -10.000000
v 40.000000 44.000000 10.000000
v 47.000000 44.000000 -10.000000
v 47.000000 44.000000 10.000000
v 40.000000 45.000000 -10.000000
v 40.000000 45.000000 10.000000
v 47.000000 45.000000 -10.000000
v 47.000000 45.000000 10.000000
v 35.000000 44.000000 -10.000000
v 35.000000 44.000000 10.000000
v 35.000000 45.000000 -10.000000
v 35.000000 45.000000 10.000000
v 47.000000 57.000000 -10.000000
v 47.000000 50.000000 -10.000000
v 47.000000 57.000000 10.000000
v 47.000000 50.000000 10.000000
v 7.000000 57.000000 -10.000000
v 7.000000 50.000000 -10.000000
v 7.000000 57.000000 10.000000
v 7.000000 50.000000 10.000000
v 0.000000 50.000000 -10.000000
v 0.000000 50.000000 10.000000
v 0.000000 57.000000 10.000000
v 0.000000 57.000000 -10.000000
v 0.000000 31.000000 10.000000
v 0.000000 43.000000 10.000000
v 0.000000 31.000000 -10.000000
v 0.000000 43.000000 -10.000000
v 7.000000 31.000000 10.000000
v 7.000000 43.000000 10.000000
v 7.000000 31.000000 -10.000000
v 7.000000 43.000000 -10.000000
v 0.000000 44.000000 10.000000
v 0.000000 44.000000 -10.000000
v 7.000000 44.000000 -10.000000
v 7.000000 44.000000 10.000000
v 25.000000 43.000000 -10.000000
v 25.000000 43.000000 10.000000
v 25.000000 44.000000 -10.000000
v 25.000000 44.000000 10.000000
v 27.000000 43.000000 -10.000000
v 27.000000 43.000000 10.000000
v 27.000000 44.000000 -10.000000
v 27.000000 44.000000 10.000000
v 25.000000 42.000000 -10.000000
v 25.000000 42.000000 10.000000
v 27.000000 42.000000 -10.000000
v 27.000000 42.000000 10.000000
v 29.000000 43.000000 -10.000000
v 29.000000 43.000000 10.000000
v 29.000000 42.000000 -10.000000
v 29.000000 42.000000 10.000000
v 27.000000 41.000000 -10.000000
v 27.000000 41.000000 10.000000
v 29.000000 41.000000 -10.000000
v 29.000000 41.000000 10.000000
v 31.000000 42.000000 -10.000000
v 31.000000 42.000000 10.000000
v 31.000000 41.000000 -10.000000
v 31.000000 41.000000 10.000000
v 0.000000 45.000000 10.000000
v 0.000000 45.000000 -10.000000
v 7.000000 45.000000 -10.000000
v 7.000000 45.000000 10.000000
v 0.000000 46.000000 10.000000
v 0.000000 46.000000 -10.000000
v 7.000000 46.000000 -10.000000
v 7.000000 46.000000 10.000000
v 0.000000 47.000000 10.000000
v 0.000000 47.000000 -10.000000
v 7.000000 47.000000 -10.000000
v 7.000000 47.000000 10.000000
v 0.000000 48.000000 10.000000
v 0.000000 48.000000 -10.000000
v 7.000000 48.000000 -10.000000
v 7.000000 48.000000 10.000000
v 0.000000 49.000000 10.000000
v 0.000000 49.000000 -10.000000
v 7.000000 49.000000 -10.000000
v 7.000000 49.000000 10.000000
v 0.000000 50.000000 10.000000
v 0.000000 50.000000 -10.000000
v 7.000000 50.000000 -10.000000
v 7.000000 50.000000 10.000000
v 10.000000 49.000000 -10.000000
v 10.000000 49.000000 10.000000
v 10.000000 50.000000 -10.000000
v 10.000000 50.000000 10.000000
v 9.000000 48.000000 -10.000000
v 9.000000 48.000000 10.000000
v 9.000000 49.000000 -10.000000
v 9.000000 49.000000 10.000000
v 8.000000 47.000000 -10.000000
v 8.000000 47.000000 10.000000
v 8.000000 48.000000 -10.000000
v 8.000000 48.000000 10.000000
v 8.000000 46.000000 -10.000000
v 8.000000 46.000000 10.000000
v 8.000000 47.000000 -10.000000
v 8.000000 47.000000 10.000000
v 9.000000 45.000000 -10.000000
v 9.000000 45.000000 10.000000
v 9.000000 46.000000 -10.000000
v 9.000000 46.000000 10.000000
v 10.000000 44.000000 -10.000000
v 10.000000 44.000000 10.000000
v 10.000000 45.000000 -10.000000
v 10.000000 45.000000 10.000000
v 18.000000 30.000000 10.000000
v 18.000000 31.000000 10.000000
v 18.000000 30.000000 -10.000000
v 18.000000 31.000000 -10.000000
v 20.000000 30.000000 10.000000
v 20.000000 31.000000 10.000000
v 20.000000 30.000000 -10.000000
v 20.000000 31.000000 -10.000000
v 18.000000 29.000000 -10.000000
v 18.000000 29.000000 10.000000
v 20.000000 29.000000 -10.000000
v 20.000000 29.000000 10.000000
v 16.000000 30.000000 -10.000000
v 16.000000 30.000000 10.000000
v 16.000000 29.000000 -10.000000
v 16.000000 29.000000 10.000000
v 18.000000 28.000000 -10.000000
v 18.000000 28.000000 10.000000
v 20.000000 28.000000 -10.000000
v 20.000000 28.000000 10.000000
vn -0.0000 -0.0000 1.0000
vn -0.0000 -0.0000 -1.0000
vn -0.0000 -1.0000 -0.0000
vn -0.0000 1.0000 -0.0000
vn -1.0000 -0.0000 -0.0000
vn 1.0000 -0.0000 -0.0000
vt 0.625000 1.000000
vt 0.375000 0.250000
vt 0.625000 0.250000
vt 0.625000 0.500000
vt 0.375000 0.500000
vt 0.375000 0.750000
vt 0.625000 0.750000
vt 0.375000 1.000000
vt 0.125000 0.500000
vt 0.125000 0.750000
vt 0.875000 0.500000
vt 0.875000 0.750000
vt 0.375000 0.000000
vt 0.625000 0.000000
s 0
usemtl Material
f 11/1/1 2/1/1 13/1/1 15/1/1
f 3/2/2 4/3/2 8/4/2 7/5/2
f 5/6/1 6/7/1 2/1/1 1/8/1
f 3/9/3 7/5/3 5/6/3 1/10/3
f 8/4/4 4/11/4 2/12/4 6/7/4
f 10/13/5 11/14/5 12/3/5 9/2/5
f 3/9/3 1/10/3 10/10/3 9/9/3
f 4/3/2 3/2/2 9/2/2 12/3/2
f 1/8/1 2/1/1 11/1/1 10/8/1
f 15/1/1 13/1/1 17/1/1 19/1/1
f 2/12/6 4/11/6 14/11/6 13/12/6
f 4/3/2 12/3/2 16/3/2 14/3/2
f 12/3/5 11/14/5 15/14/5 16/3/5
f 19/1/1 17/1/1 105/1/1 107/1/1
f 16/3/5 15/14/5 19/14/5 20/3/5
f 14/3/2 16/3/2 20/3/2 18/3/2
f 17/1/1 13/1/1 21/1/1 23/1/1
f 23/1/1 21/1/1 25/1/1 27/1/1
f 24/3/2 18/3/2 106/3/2 110/3/2
f 14/3/2 18/3/2 24/3/2 22/3/2
f 13/12/3 14/11/3 22/11/3 21/12/3
f 25/12/6 26/11/6 28/11/6 27/12/6
f 21/12/5 22/11/5 30/11/5 29/12/5
f 22/3/2 24/3/2 28/3/2 26/3/2
f 24/11/4 23/12/4 27/12/4 28/11/4
f 29/12/3 30/11/3 32/11/3 31/12/3
f 22/3/2 26/3/2 32/3/2 30/3/2
f 25/1/1 21/1/1 29/1/1 31/1/1
f 32/3/2 26/3/2 34/3/2 36/3/2
f 34/11/6 33/12/6 35/12/6 36/11/6
f 25/1/1 31/1/1 35/1/1 33/1/1
f 26/11/4 25/12/4 33/12/4 34/11/4
f 32/3/2 36/3/2 40/3/2 38/3/2
f 37/12/3 38/11/3 40/11/3 39/12/3
f 44/11/4 43/12/4 49/12/4 50/11/4
f 35/1/1 31/1/1 37/1/1 39/1/1
f 31/12/5 32/11/5 38/11/5 37/12/5
f 42/11/6 41/12/6 43/12/6 44/11/6
f 35/1/1 39/1/1 43/1/1 41/1/1
f 36/11/4 35/12/4 41/12/4 42/11/4
f 40/3/2 36/3/2 42/3/2 44/3/2
f 45/12/3 46/11/3 48/11/3 47/12/3
f 39/12/5 40/11/5 46/11/5 45/12/5
f 40/3/2 44/3/2 48/3/2 46/3/2
f 43/1/1 39/1/1 45/1/1 47/1/1
f 52/3/2 50/3/2 54/3/2 56/3/2
f 43/1/1 47/1/1 51/1/1 49/1/1
f 48/3/2 44/3/2 50/3/2 52/3/2
f 47/12/3 48/11/3 52/11/3 51/12/3
f 54/11/6 53/12/6 55/12/6 56/11/6
f 55/1/1 51/1/1 57/1/1 59/1/1
f 49/1/1 51/1/1 55/1/1 53/1/1
f 50/11/4 49/12/4 53/12/4 54/11/4
f 57/12/3 58/11/3 60/11/3 59/12/3
f 51/12/5 52/11/5 58/11/5 57/12/5
f 52/3/2 56/3/2 60/3/2 58/3/2
f 60/3/2 56/3/2 62/3/2 64/3/2
f 62/11/6 61/12/6 63/12/6 64/11/6
f 55/1/1 59/1/1 63/1/1 61/1/1
f 60/3/2 64/3/2 68/3/2 66/3/2
f 56/11/4 55/12/4 61/12/4 62/11/4
f 65/12/3 66/11/3 68/11/3 67/12/3
f 63/1/1 67/1/1 71/1/1 69/1/1
f 63/1/1 59/1/1 65/1/1 67/1/1
f 59/12/5 60/11/5 66/11/5 65/12/5
f 70/11/6 69/12/6 71/12/6 72/11/6
f 64/11/4 63/12/4 69/12/4 70/11/4
f 68/3/2 64/3/2 70/3/2 72/3/2
f 68/3/2 72/3/2 76/3/2 74/3/2
f 73/12/3 74/11/3 76/11/3 75/12/3
f 75/12/3 76/11/3 80/11/3 79/12/3
f 67/12/5 68/11/5 74/11/5 73/12/5
f 71/1/1 67/1/1 73/1/1 75/1/1
f 78/11/6 77/12/6 79/12/6 80/11/6
f 71/1/1 75/1/1 79/1/1 77/1/1
f 72/11/4 71/12/4 77/12/4 78/11/4
f 76/3/2 72/3/2 78/3/2 80/3/2
f 84/7/1 83/6/1 87/6/1 88/7/1
f 7/5/6 8/4/6 6/7/6 5/6/6
f 82/5/5 83/6/5 84/7/5 81/4/5
f 87/6/3 86/5/3 90/5/3 91/6/3
f 83/6/3 82/5/3 86/5/3 87/6/3
f 81/4/4 84/7/4 88/7/4 85/4/4
f 82/5/2 81/4/2 85/4/2 86/5/2
f 89/4/5 92/7/5 98/7/5 97/4/5
f 92/7/6 89/4/6 103/4/6 104/7/6
f 86/5/2 85/4/2 89/4/2 90/5/2
f 88/7/1 87/6/1 91/6/1 92/7/1
f 94/5/6 93/4/6 96/7/6 95/6/6
f 90/5/2 89/4/2 93/4/2 94/5/2
f 92/7/1 91/6/1 95/6/1 96/7/1
f 91/6/3 90/5/3 94/5/3 95/6/3
f 93/4/2 89/4/2 97/4/2 99/4/2
f 92/7/1 96/7/1 100/7/1 98/7/1
f 96/7/6 93/4/6 99/4/6 100/7/6
f 101/4/4 102/7/4 104/7/4 103/4/4
f 89/4/2 85/4/2 101/4/2 103/4/2
f 85/4/5 88/7/5 102/7/5 101/4/5
f 88/7/1 92/7/1 104/7/1 102/7/1
f 105/12/6 106/11/6 112/11/6 111/12/6
f 106/11/4 105/12/4 109/12/4 110/11/4
f 20/3/5 19/14/5 107/14/5 108/3/5
f 17/1/1 23/1/1 109/1/1 105/1/1
f 18/3/2 20/3/2 108/3/2 106/3/2
f 23/12/6 24/11/6 110/11/6 109/12/6
f 107/1/1 105/1/1 111/1/1 113/1/1
f 99/4/2 97/4/2 115/4/2 117/4/2
f 111/12/4 112/11/4 114/11/4 113/12/4
f 108/3/5 107/14/5 113/14/5 114/3/5
f 106/3/2 108/3/2 114/3/2 112/3/2
f 122/7/1 116/7/1 124/7/1 128/7/1
f 100/7/6 99/4/6 117/4/6 118/7/6
f 98/7/1 100/7/1 118/7/1 116/7/1
f 115/4/2 97/4/2 119/4/2 121/4/2
f 119/4/5 120/7/5 122/7/5 121/4/5
f 121/4/5 122/7/5 128/7/5 127/4/5
f 98/7/1 116/7/1 122/7/1 120/7/1
f 97/4/3 98/7/3 120/7/3 119/4/3
f 124/7/4 126/7/4 125/4/4 123/4/4
f 124/7/4 123/4/4 127/4/4 128/7/4
f 117/4/2 115/4/2 123/4/2 125/4/2
f 118/7/6 117/4/6 125/4/6 126/7/6
f 115/4/2 121/4/2 127/4/2 123/4/2
f 116/7/1 118/7/1 126/7/1 124/7/1
f 129/4/4 133/11/4 135/12/4 131/7/4
f 132/6/1 131/7/1 135/1/1 136/8/1
f 136/13/5 135/14/5 133/3/5 134/2/5
f 134/9/3 130/5/3 132/6/3 136/10/3
f 130/5/6 129/4/6 131/7/6 132/6/6
f 134/2/2 133/3/2 129/4/2 130/5/2
f 137/13/5 138/14/5 140/3/5 139/2/5
f 139/2/2 140/3/2 144/4/2 143/5/2
f 144/4/4 142/7/4 148/7/4 145/4/4
f 141/6/1 142/7/1 138/1/1 137/8/1
f 139/9/3 143/5/3 141/6/3 137/10/3
f 144/4/4 140/11/4 138/12/4 142/7/4
f 148/7/1 147/6/1 151/6/1 152/7/1
f 143/5/2 144/4/2 145/4/2 146/5/2
f 142/7/1 141/6/1 147/6/1 148/7/1
f 141/6/3 143/5/3 146/5/3 147/6/3
f 150/5/6 149/4/6 152/7/6 151/6/6
f 147/6/3 146/5/3 150/5/3 151/6/3
f 158/7/1 152/7/1 182/7/1 184/7/1
f 146/5/2 145/4/2 149/4/2 150/5/2
f 153/4/4 154/7/4 156/7/4 155/4/4
f 149/4/2 145/4/2 153/4/2 155/4/2
f 145/4/5 148/7/5 154/7/5 153/4/5
f 148/7/1 152/7/1 156/7/1 154/7/1
f 158/7/6 157/4/6 159/4/6 160/7/6
f 156/7/1 152/7/1 158/7/1 160/7/1
f 165/4/6 166/7/6 188/7/6 187/4/6
f 149/4/2 155/4/2 159/4/2 157/4/2
f 161/4/4 162/7/4 164/7/4 163/4/4
f 156/7/1 160/7/1 164/7/1 162/7/1
f 155/4/5 156/7/5 162/7/5 161/4/5
f 159/4/2 155/4/2 161/4/2 163/4/2
f 166/7/6 165/4/6 167/4/6 168/7/6
f 159/4/2 163/4/2 167/4/2 165/4/2
f 164/7/1 160/7/1 166/7/1 168/7/1
f 164/7/1 168/7/1 172/7/1 170/7/1
f 169/4/4 170/7/4 172/7/4 171/4/4
f 171/4/5 172/7/5 178/7/5 177/4/5
f 167/4/2 163/4/2 169/4/2 171/4/2
f 163/4/5 164/7/5 170/7/5 169/4/5
f 176/7/1 174/7/1 198/7/1 200/7/1
f 167/4/2 171/4/2 175/4/2 173/4/2
f 167/4/2 173/4/2 191/4/2 189/4/2
f 172/7/1 168/7/1 174/7/1 176/7/1
f 177/4/4 178/7/4 180/7/4 179/4/4
f 172/7/1 176/7/1 180/7/1 178/7/1
f 175/4/2 171/4/2 177/4/2 179/4/2
f 175/4/2 179/4/2 201/4/2 199/4/2
f 182/7/3 181/4/3 183/4/3 184/7/3
f 152/7/5 149/4/5 181/4/5 182/7/5
f 149/4/2 157/4/2 183/4/2 181/4/2
f 157/4/6 158/7/6 184/7/6 183/4/6
f 186/7/3 185/4/3 187/4/3 188/7/3
f 160/7/5 159/4/5 185/4/5 186/7/5
f 166/7/1 160/7/1 186/7/1 188/7/1
f 159/4/2 165/4/2 187/4/2 185/4/2
f 190/7/3 189/4/3 191/4/3 192/7/3
f 173/4/4 174/7/4 194/7/4 193/4/4
f 168/7/5 167/4/5 189/4/5 190/7/5
f 174/7/1 168/7/1 190/7/1 192/7/1
f 200/7/1 198/7/1 208/7/1 210/7/1
f 192/7/3 191/4/3 195/4/3 196/7/3
f 174/7/1 192/7/1 196/7/1 194/7/1
f 191/4/2 173/4/2 193/4/2 195/4/2
f 194/7/1 196/7/1 206/7/1 204/7/1
f 202/7/1 200/7/1 210/7/1 212/7/1
f 174/7/3 173/4/3 197/4/3 198/7/3
f 179/4/4 180/7/4 202/7/4 201/4/4
f 180/7/1 176/7/1 200/7/1 202/7/1
f 173/4/2 175/4/2 199/4/2 197/4/2
f 203/4/6 204/7/6 206/7/6 205/4/6
f 208/7/6 207/4/6 209/4/6 210/7/6
f 210/7/6 209/4/6 211/4/6 212/7/6
f 193/4/4 194/7/4 204/7/4 203/4/4
f 199/4/2 201/4/2 211/4/2 209/4/2
f 197/4/2 199/4/2 209/4/2 207/4/2
f 196/7/3 195/4/3 205/4/3 206/7/3
f 198/7/3 197/4/3 207/4/3 208/7/3
f 212/7/6 211/4/6 215/4/6 216/7/6
f 195/4/2 193/4/2 203/4/2 205/4/2
f 216/7/6 215/4/6 219/4/6 220/7/6
f 202/7/1 212/7/1 216/7/1 214/7/1
f 211/4/2 201/4/2 213/4/2 215/4/2
f 201/4/5 202/7/5 214/7/5 213/4/5
f 218/7/1 220/7/1 224/7/1 222/7/1
f 214/7/1 216/7/1 220/7/1 218/7/1
f 213/4/5 214/7/5 218/7/5 217/4/5
f 215/4/2 213/4/2 217/4/2 219/4/2
f 223/4/2 221/4/2 225/4/2 227/4/2
f 217/4/5 218/7/5 222/7/5 221/4/5
f 219/4/2 217/4/2 221/4/2 223/4/2
f 220/7/6 219/4/6 223/4/6 224/7/6
f 226/7/1 228/7/1 236/7/1 234/7/1
f 224/7/6 223/4/6 227/4/6 228/7/6
f 222/7/1 224/7/1 228/7/1 226/7/1
f 225/4/2 221/4/2 229/4/2 231/4/2
f 229/4/5 230/7/5 232/7/5 231/4/5
f 226/7/4 225/4/4 231/4/4 232/7/4
f 222/7/1 226/7/1 232/7/1 230/7/1
f 221/4/3 222/7/3 230/7/3 229/4/3
f 235/4/2 233/4/2 237/4/2 239/4/2
f 225/4/5 226/7/5 234/7/5 233/4/5
f 227/4/2 225/4/2 233/4/2 235/4/2
f 228/7/6 227/4/6 235/4/6 236/7/6
f 239/4/2 237/4/2 245/4/2 247/4/2
f 236/7/6 235/4/6 239/4/6 240/7/6
f 234/7/1 236/7/1 240/7/1 238/7/1
f 237/4/2 233/4/2 241/4/2 243/4/2
f 241/4/5 242/7/5 244/7/5 243/4/5
f 238/7/4 237/4/4 243/4/4 244/7/4
f 234/7/1 238/7/1 244/7/1 242/7/1
f 233/4/3 234/7/3 242/7/3 241/4/3
f 246/7/1 248/7/1 252/7/1 250/7/1
f 240/7/6 239/4/6 247/4/6 248/7/6
f 238/7/1 240/7/1 248/7/1 246/7/1
f 237/4/5 238/7/5 246/7/5 245/4/5
f 249/4/4 250/7/4 252/7/4 251/4/4
f 246/7/1 250/7/1 256/7/1 254/7/1
f 247/4/2 245/4/2 249/4/2 251/4/2
f 248/7/6 247/4/6 251/4/6 252/7/6
f 253/4/5 254/7/5 256/7/5 255/4/5
f 245/4/3 246/7/3 254/7/3 253/4/3
f 249/4/2 245/4/2 253/4/2 255/4/2
f 250/7/4 249/4/4 255/4/4 256/7/4
f 257/4/4 261/11/4 263/12/4 259/7/4
f 260/6/1 259/7/1 263/1/1 264/8/1
f 262/9/3 264/10/3 266/10/3 265/9/3
f 262/9/3 258/5/3 260/6/3 264/10/3
f 258/5/6 257/4/6 259/7/6 260/6/6
f 262/2/2 261/3/2 257/4/2 258/5/2
f 266/13/5 267/14/5 268/3/5 265/2/5
f 263/12/4 261/11/4 268/11/4 267/12/4
f 261/3/2 262/2/2 265/2/2 268/3/2
f 264/8/1 263/1/1 267/1/1 266/8/1
f 269/13/5 270/14/5 272/3/5 271/2/5
f 271/2/2 272/3/2 276/4/2 275/5/2
f 275/5/6 276/4/6 274/7/6 273/6/6
f 273/6/1 274/7/1 270/1/1 269/8/1
f 271/9/3 275/5/3 273/6/3 269/10/3
f 276/4/2 272/3/2 278/3/2 279/4/2
f 308/7/1 280/7/1 350/7/1 352/7/1
f 279/4/4 280/7/4 284/7/4 283/4/4
f 272/3/5 270/14/5 277/14/5 278/3/5
f 270/1/1 274/7/1 280/7/1 277/1/1
f 281/4/2 283/4/2 287/4/2 285/4/2
f 274/7/3 276/4/3 281/4/3 282/7/3
f 276/4/2 279/4/2 283/4/2 281/4/2
f 280/7/1 274/7/1 282/7/1 284/7/1
f 286/7/6 285/4/6 287/4/6 288/7/6
f 281/4/2 285/4/2 291/4/2 289/4/2
f 284/7/1 282/7/1 286/7/1 288/7/1
f 283/4/4 284/7/4 288/7/4 287/4/4
f 290/7/3 289/4/3 291/4/3 292/7/3
f 282/7/5 281/4/5 289/4/5 290/7/5
f 286/7/1 282/7/1 290/7/1 292/7/1
f 292/7/5 291/4/5 297/4/5 298/7/5
f 293/4/6 294/7/6 296/7/6 295/4/6
f 291/4/2 285/4/2 293/4/2 295/4/2
f 286/7/1 292/7/1 296/7/1 294/7/1
f 285/4/4 286/7/4 294/7/4 293/4/4
f 298/7/3 297/4/3 299/4/3 300/7/3
f 291/4/2 295/4/2 299/4/2 297/4/2
f 296/7/1 292/7/1 298/7/1 300/7/1
f 296/7/1 300/7/1 304/7/1 302/7/1
f 301/4/6 302/7/6 304/7/6 303/4/6
f 300/7/3 299/4/3 303/4/3 304/7/3
f 299/4/2 295/4/2 301/4/2 303/4/2
f 295/4/4 296/7/4 302/7/4 301/4/4
f 305/1/1 308/7/1 312/7/1 309/1/1
f 278/3/5 277/14/5 305/14/5 306/3/5
f 277/1/1 280/7/1 308/7/1 305/1/1
f 279/4/2 278/3/2 306/3/2 307/4/2
f 315/4/4 316/7/4 344/7/4 343/4/4
f 307/4/2 306/3/2 310/3/2 311/4/2
f 312/7/1 308/7/1 346/7/1 348/7/1
f 306/3/5 305/14/5 309/14/5 310/3/5
f 313/1/1 316/7/1 320/7/1 317/1/1
f 310/3/5 309/14/5 313/14/5 314/3/5
f 309/1/1 312/7/1 316/7/1 313/1/1
f 311/4/2 310/3/2 314/3/2 315/4/2
f 319/4/2 318/3/2 322/3/2 323/4/2
f 315/4/2 314/3/2 318/3/2 319/4/2
f 320/7/1 316/7/1 338/7/1 340/7/1
f 314/3/5 313/14/5 317/14/5 318/3/5
f 324/7/3 323/4/3 329/4/3 330/7/3
f 323/4/4 324/7/4 336/7/4 335/4/4
f 318/3/5 317/14/5 321/14/5 322/3/5
f 317/1/1 320/7/1 324/7/1 321/1/1
f 327/4/4 326/11/4 325/12/4 328/7/4
f 322/3/5 321/14/5 325/14/5 326/3/5
f 321/1/1 324/7/1 328/7/1 325/1/1
f 323/4/2 322/3/2 326/3/2 327/4/2
f 330/7/6 329/4/6 331/4/6 332/7/6
f 328/7/1 324/7/1 330/7/1 332/7/1
f 323/4/2 327/4/2 331/4/2 329/4/2
f 327/4/4 328/7/4 332/7/4 331/4/4
f 334/7/6 333/4/6 335/4/6 336/7/6
f 320/7/3 319/4/3 333/4/3 334/7/3
f 319/4/2 323/4/2 335/4/2 333/4/2
f 324/7/1 320/7/1 334/7/1 336/7/1
f 338/7/6 337/4/6 339/4/6 340/7/6
f 319/4/4 320/7/4 340/7/4 339/4/4
f 315/4/2 319/4/2 339/4/2 337/4/2
f 316/7/3 315/4/3 337/4/3 338/7/3
f 342/7/6 341/4/6 343/4/6 344/7/6
f 312/7/3 311/4/3 341/4/3 342/7/3
f 316/7/1 312/7/1 342/7/1 344/7/1
f 311/4/2 315/4/2 343/4/2 341/4/2
f 346/7/6 345/4/6 347/4/6 348/7/6
f 311/4/4 312/7/4 348/7/4 347/4/4
f 307/4/2 311/4/2 347/4/2 345/4/2
f 308/7/3 307/4/3 345/4/3 346/7/3
f 350/7/6 349/4/6 351/4/6 352/7/6
f 280/7/3 279/4/3 349/4/3 350/7/3
f 279/4/2 307/4/2 351/4/2 349/4/2
f 307/4/4 308/7/4 352/7/4 351/4/4
f 353/13/5 354/14/5 356/3/5 355/2/5
f 355/2/2 356/3/2 360/4/2 359/5/2
f 359/5/6 360/4/6 358/7/6 357/6/6
f 357/6/1 358/7/1 354/1/1 353/8/1
f 357/6/1 353/8/1 362/8/1 364/6/1
f 360/4/4 356/11/4 354/12/4 358/7/4
f 363/5/6 364/6/6 372/6/6 371/5/6
f 355/2/2 359/5/2 363/5/2 361/2/2
f 361/9/3 362/10/3 368/10/3 367/9/3
f 359/5/6 357/6/6 364/6/6 363/5/6
f 366/13/5 365/2/5 367/2/5 368/13/5
f 355/2/2 361/2/2 367/2/2 365/2/2
f 353/13/4 355/2/4 365/2/4 366/13/4
f 362/8/1 353/8/1 366/8/1 368/8/1
f 369/9/3 371/5/3 372/6/3 370/10/3
f 362/10/5 361/9/5 369/9/5 370/10/5
f 364/6/1 362/8/1 370/8/1 372/6/1
f 361/2/2 363/5/2 371/5/2 369/2/2
