# MagicaVoxel @ Ephtracy

# group
o 

# material
mtllib torso.mtl
usemtl palette

# normals
vn -1 0 0
vn 1 0 0
vn 0 0 1
vn 0 0 -1
vn 0 -1 0
vn 0 1 0

# texcoords
vt 0.341797 0.5
vt 0.474609 0.5
vt 0.845703 0.5
vt 0.951172 0.5
vt 0.970703 0.5
vt 0.974609 0.5

# verts
v -0.7 0.1 -0.2
v -0.7 0.1 -0.5
v -0.7 0.2 0.3
v -0.7 0.2 0
v -0.7 0.6 0.3
v -0.7 0.6 0
v -0.7 0.6 -0.2
v -0.7 0.6 -0.5
v -0.6 0.4 0.4
v -0.6 0.4 0.3
v -0.6 0.4 0
v -0.6 0.4 -0.2
v -0.6 0.4 -0.5
v -0.6 0.4 -0.6
v -0.6 0.6 0.4
v -0.6 0.6 0.3
v -0.6 0.6 0
v -0.6 0.6 -0.2
v -0.6 0.6 -0.5
v -0.6 0.6 -0.6
v -0.5 0.1 0.4
v -0.5 0.1 -0.2
v -0.5 0.2 0.3
v -0.5 0.2 0
v -0.5 0.4 0.5
v -0.5 0.4 0.4
v -0.5 0.4 0.3
v -0.5 0.4 0
v -0.5 0.4 -0.2
v -0.5 0.6 0.5
v -0.5 0.6 0.4
v 0.4 0.1 0.4
v 0.4 0.1 -0.2
v 0.4 0.2 0.3
v 0.4 0.2 0
v 0.4 0.4 0.5
v 0.4 0.4 0.4
v 0.4 0.4 0.3
v 0.4 0.4 0
v 0.4 0.4 -0.2
v 0.4 0.6 0.5
v 0.4 0.6 0.4
v 0.5 0.4 0.4
v 0.5 0.4 0.3
v 0.5 0.4 0
v 0.5 0.4 -0.2
v 0.5 0.4 -0.5
v 0.5 0.4 -0.6
v 0.5 0.6 0.4
v 0.5 0.6 0.3
v 0.5 0.6 0
v 0.5 0.6 -0.2
v 0.5 0.6 -0.5
v 0.5 0.6 -0.6
v 0.6 0.1 -0.2
v 0.6 0.1 -0.5
v 0.6 0.2 0.3
v 0.6 0.2 0
v 0.6 0.6 0.3
v 0.6 0.6 0
v 0.6 0.6 -0.2
v 0.6 0.6 -0.5
v -0.5 0.4 0.5
v -0.5 0.6 0.5
v -0.2 0.4 0.5
v -0.2 0.6 0.5
v 0.1 0.4 0.5
v 0.1 0.6 0.5
v 0.4 0.4 0.5
v 0.4 0.6 0.5
v -0.6 0.4 0.4
v -0.6 0.6 0.4
v -0.5 0.1 0.4
v -0.5 0.4 0.4
v -0.5 0.6 0.4
v -0.2 0.4 0.4
v 0.1 0.4 0.4
v 0.4 0.1 0.4
v 0.4 0.4 0.4
v 0.4 0.6 0.4
v 0.5 0.4 0.4
v 0.5 0.6 0.4
v -0.7 0.2 0.3
v -0.7 0.6 0.3
v -0.6 0.4 0.3
v -0.6 0.6 0.3
v -0.5 0.2 0.3
v -0.5 0.4 0.3
v 0.4 0.2 0.3
v 0.4 0.4 0.3
v 0.5 0.4 0.3
v 0.5 0.6 0.3
v 0.6 0.2 0.3
v 0.6 0.6 0.3
v -0.7 0.1 -0.2
v -0.7 0.6 -0.2
v -0.6 0.4 -0.2
v -0.6 0.6 -0.2
v -0.5 0.1 -0.2
v -0.5 0.4 -0.2
v 0.4 0.1 -0.2
v 0.4 0.4 -0.2
v 0.5 0.4 -0.2
v 0.5 0.6 -0.2
v 0.6 0.1 -0.2
v 0.6 0.6 -0.2
v -0.7 0.2 0
v -0.7 0.6 0
v -0.6 0.4 0
v -0.6 0.6 0
v -0.5 0.2 0
v -0.5 0.4 0
v 0.4 0.2 0
v 0.4 0.4 0
v 0.5 0.4 0
v 0.5 0.6 0
v 0.6 0.2 0
v 0.6 0.6 0
v -0.7 0.1 -0.5
v -0.7 0.6 -0.5
v -0.6 0.4 -0.5
v -0.6 0.6 -0.5
v -0.5 0.1 -0.5
v -0.5 0.4 -0.5
v 0.4 0.1 -0.5
v 0.4 0.4 -0.5
v 0.5 0.4 -0.5
v 0.5 0.6 -0.5
v 0.6 0.1 -0.5
v 0.6 0.6 -0.5
v -0.6 0.4 -0.6
v -0.6 0.6 -0.6
v 0.5 0.4 -0.6
v 0.5 0.6 -0.6
v -0.5 0.1 0.4
v 0.4 0.1 0.4
v -0.7 0.1 -0.2
v -0.5 0.1 -0.2
v 0.4 0.1 -0.2
v 0.6 0.1 -0.2
v -0.7 0.1 -0.5
v -0.5 0.1 -0.5
v 0.4 0.1 -0.5
v 0.6 0.1 -0.5
v -0.7 0.2 0.3
v -0.5 0.2 0.3
v 0.4 0.2 0.3
v 0.6 0.2 0.3
v -0.7 0.2 0
v -0.5 0.2 0
v 0.4 0.2 0
v 0.6 0.2 0
v -0.5 0.4 0.5
v -0.2 0.4 0.5
v 0.1 0.4 0.5
v 0.4 0.4 0.5
v -0.6 0.4 0.4
v -0.5 0.4 0.4
v -0.2 0.4 0.4
v 0.1 0.4 0.4
v 0.4 0.4 0.4
v 0.5 0.4 0.4
v -0.6 0.4 0.3
v -0.5 0.4 0.3
v 0.4 0.4 0.3
v 0.5 0.4 0.3
v -0.6 0.4 0
v -0.5 0.4 0
v 0.4 0.4 0
v 0.5 0.4 0
v -0.6 0.4 -0.2
v -0.5 0.4 -0.2
v 0.4 0.4 -0.2
v 0.5 0.4 -0.2
v -0.6 0.4 -0.5
v -0.5 0.4 -0.5
v 0.4 0.4 -0.5
v 0.5 0.4 -0.5
v -0.6 0.4 -0.6
v 0.5 0.4 -0.6
v -0.5 0.6 0.5
v -0.2 0.6 0.5
v 0.1 0.6 0.5
v 0.4 0.6 0.5
v -0.6 0.6 0.4
v -0.5 0.6 0.4
v -0.2 0.6 0.4
v 0.1 0.6 0.4
v 0.4 0.6 0.4
v 0.5 0.6 0.4
v -0.7 0.6 0.3
v -0.6 0.6 0.3
v -0.5 0.6 0.3
v 0.4 0.6 0.3
v 0.5 0.6 0.3
v 0.6 0.6 0.3
v -0.7 0.6 0
v -0.6 0.6 0
v 0.5 0.6 0
v 0.6 0.6 0
v -0.7 0.6 -0.2
v -0.6 0.6 -0.2
v 0.5 0.6 -0.2
v 0.6 0.6 -0.2
v -0.7 0.6 -0.5
v -0.6 0.6 -0.5
v -0.5 0.6 -0.5
v 0.4 0.6 -0.5
v 0.5 0.6 -0.5
v 0.6 0.6 -0.5
v -0.6 0.6 -0.6
v 0.5 0.6 -0.6

# faces
f 5/1/1 4/1/1 3/1/1
f 6/1/1 4/1/1 5/1/1
f 7/1/1 2/1/1 1/1/1
f 8/1/1 2/1/1 7/1/1
f 15/1/1 10/1/1 9/1/1
f 16/1/1 10/1/1 15/1/1
f 17/1/1 12/1/1 11/1/1
f 18/1/1 12/1/1 17/1/1
f 19/1/1 14/1/1 13/1/1
f 20/1/1 14/1/1 19/1/1
f 23/4/1 22/4/1 21/4/1
f 24/4/1 22/4/1 23/4/1
f 26/4/1 23/4/1 21/4/1
f 27/4/1 23/4/1 26/4/1
f 28/4/1 22/4/1 24/4/1
f 29/4/1 22/4/1 28/4/1
f 30/1/1 26/1/1 25/1/1
f 31/1/1 26/1/1 30/1/1
f 32/4/2 33/4/2 34/4/2
f 34/4/2 33/4/2 35/4/2
f 32/4/2 34/4/2 37/4/2
f 37/4/2 34/4/2 38/4/2
f 35/4/2 33/4/2 39/4/2
f 39/4/2 33/4/2 40/4/2
f 36/1/2 37/1/2 41/1/2
f 41/1/2 37/1/2 42/1/2
f 43/1/2 44/1/2 49/1/2
f 49/1/2 44/1/2 50/1/2
f 45/1/2 46/1/2 51/1/2
f 51/1/2 46/1/2 52/1/2
f 47/1/2 48/1/2 53/1/2
f 53/1/2 48/1/2 54/1/2
f 57/1/2 58/1/2 59/1/2
f 59/1/2 58/1/2 60/1/2
f 55/1/2 56/1/2 61/1/2
f 61/1/2 56/1/2 62/1/2
f 65/1/3 64/1/3 63/1/3
f 66/1/3 64/1/3 65/1/3
f 67/2/3 66/2/3 65/2/3
f 68/2/3 66/2/3 67/2/3
f 69/1/3 68/1/3 67/1/3
f 70/1/3 68/1/3 69/1/3
f 74/1/3 72/1/3 71/1/3
f 75/1/3 72/1/3 74/1/3
f 76/4/3 74/4/3 73/4/3
f 77/4/3 76/4/3 73/4/3
f 78/4/3 77/4/3 73/4/3
f 79/4/3 77/4/3 78/4/3
f 81/1/3 80/1/3 79/1/3
f 82/1/3 80/1/3 81/1/3
f 85/1/3 84/1/3 83/1/3
f 86/1/3 84/1/3 85/1/3
f 87/1/3 85/1/3 83/1/3
f 88/1/3 85/1/3 87/1/3
f 91/1/3 90/1/3 89/1/3
f 93/1/3 91/1/3 89/1/3
f 93/1/3 92/1/3 91/1/3
f 94/1/3 92/1/3 93/1/3
f 97/1/3 96/1/3 95/1/3
f 98/1/3 96/1/3 97/1/3
f 99/1/3 97/1/3 95/1/3
f 100/1/3 97/1/3 99/1/3
f 103/1/3 102/1/3 101/1/3
f 105/1/3 103/1/3 101/1/3
f 105/1/3 104/1/3 103/1/3
f 106/1/3 104/1/3 105/1/3
f 107/1/4 108/1/4 109/1/4
f 109/1/4 108/1/4 110/1/4
f 107/1/4 109/1/4 111/1/4
f 111/1/4 109/1/4 112/1/4
f 113/1/4 114/1/4 115/1/4
f 113/1/4 115/1/4 117/1/4
f 115/1/4 116/1/4 117/1/4
f 117/1/4 116/1/4 118/1/4
f 119/1/4 120/1/4 121/1/4
f 121/1/4 120/1/4 122/1/4
f 119/1/4 121/1/4 123/1/4
f 123/1/4 121/1/4 124/1/4
f 123/4/4 124/4/4 125/4/4
f 125/4/4 124/4/4 126/4/4
f 125/1/4 126/1/4 127/1/4
f 125/1/4 127/1/4 129/1/4
f 127/1/4 128/1/4 129/1/4
f 129/1/4 128/1/4 130/1/4
f 131/1/4 132/1/4 133/1/4
f 133/1/4 132/1/4 134/1/4
f 138/4/5 136/4/5 135/4/5
f 139/4/5 136/4/5 138/4/5
f 141/1/5 138/1/5 137/1/5
f 142/4/5 139/4/5 138/4/5
f 142/1/5 138/1/5 141/1/5
f 143/1/5 140/1/5 139/1/5
f 143/4/5 139/4/5 142/4/5
f 144/1/5 140/1/5 143/1/5
f 149/1/5 146/1/5 145/1/5
f 150/1/5 146/1/5 149/1/5
f 151/1/5 148/1/5 147/1/5
f 152/1/5 148/1/5 151/1/5
f 158/1/5 154/1/5 153/1/5
f 159/2/5 155/2/5 154/2/5
f 159/1/5 154/1/5 158/1/5
f 160/1/5 156/1/5 155/1/5
f 160/2/5 155/2/5 159/2/5
f 161/1/5 156/1/5 160/1/5
f 163/1/5 158/1/5 157/1/5
f 164/1/5 158/1/5 163/1/5
f 165/1/5 162/1/5 161/1/5
f 166/1/5 162/1/5 165/1/5
f 171/1/5 168/1/5 167/1/5
f 172/1/5 168/1/5 171/1/5
f 173/1/5 170/1/5 169/1/5
f 174/1/5 170/1/5 173/1/5
f 179/1/5 176/1/5 175/1/5
f 179/1/5 178/1/5 177/1/5
f 179/1/5 177/1/5 176/1/5
f 180/1/5 178/1/5 179/1/5
f 181/1/6 182/1/6 186/1/6
f 182/2/6 183/2/6 187/2/6
f 186/1/6 182/1/6 187/1/6
f 183/1/6 184/1/6 188/1/6
f 187/2/6 183/2/6 188/2/6
f 188/1/6 184/1/6 189/1/6
f 186/1/6 187/1/6 192/1/6
f 189/1/6 190/1/6 192/1/6
f 188/1/6 189/1/6 192/1/6
f 187/1/6 188/1/6 192/1/6
f 185/1/6 186/1/6 192/1/6
f 192/1/6 190/1/6 193/1/6
f 193/1/6 190/1/6 194/1/6
f 194/1/6 190/1/6 195/1/6
f 191/1/6 192/1/6 197/1/6
f 192/1/6 193/1/6 197/1/6
f 197/1/6 193/1/6 198/1/6
f 195/1/6 196/1/6 199/1/6
f 194/1/6 195/1/6 199/1/6
f 199/1/6 196/1/6 200/1/6
f 198/1/6 193/1/6 202/1/6
f 194/1/6 199/1/6 203/1/6
f 201/1/6 202/1/6 205/1/6
f 202/1/6 193/1/6 206/1/6
f 205/1/6 202/1/6 206/1/6
f 193/4/6 194/4/6 207/4/6
f 206/1/6 193/1/6 207/1/6
f 203/1/6 204/1/6 208/1/6
f 207/4/6 194/4/6 208/4/6
f 194/1/6 203/1/6 208/1/6
f 208/1/6 204/1/6 209/1/6
f 209/1/6 204/1/6 210/1/6
f 206/1/6 207/1/6 211/1/6
f 208/1/6 209/1/6 211/1/6
f 207/1/6 208/1/6 211/1/6
f 211/1/6 209/1/6 212/1/6
